<?xml version="1.0" encoding="UTF-8"?>
<svg width="24px" height="24px" viewBox="0 0 24 24" version="1.1" xmlns="http://www.w3.org/2000/svg" xmlns:xlink="http://www.w3.org/1999/xlink">
    <!-- Generator: Sketch 51.3 (57544) - http://www.bohemiancoding.com/sketch -->
    <title>Artboard 3 Copy 4</title>
    <desc>Created with Sketch.</desc>
    <defs></defs>
    <g id="Artboard-3-Copy-4" stroke="none" stroke-width="1" fill="none" fill-rule="evenodd">
        <path d="M9,6 C9,4.8954305 9.8954305,4 11,4 L14,4 C15.1045695,4 16,4.8954305 16,6 L20,6 L20,8 L5,8 L5,6 L9,6 Z M7,9 L18,9 L18,18 C18,19.1045695 17.1045695,20 16,20 L9,20 C7.8954305,20 7,19.1045695 7,18 L7,9 Z M9,12 L9,17 L10,17 L10,12 L9,12 Z M12,12 L12,17 L13,17 L13,12 L12,12 Z M15,12 L15,17 L16,17 L16,12 L15,12 Z" id="Combined-Shape" fill="#7B7B80" fill-rule="nonzero"></path>
    </g>
</svg>