<?xml version="1.0" encoding="UTF-8"?>
<svg width="152px" height="56px" viewBox="0 0 152 56" version="1.1" xmlns="http://www.w3.org/2000/svg" xmlns:xlink="http://www.w3.org/1999/xlink">
    <!-- Generator: Sketch 50.2 (55047) - http://www.bohemiancoding.com/sketch -->
    <title>Artboard 2</title>
    <desc>Created with Sketch.</desc>
    <defs></defs>
    <g id="Artboard-2" stroke="none" stroke-width="1" fill="none" fill-rule="evenodd">
        <g id="LibeÌration" fill-rule="nonzero">
            <polyline id="Shape" fill="#E91845" points="0.28 27.832 76.16 0.336 152.04 27.832 76.16 55.664 0.28 27.832"></polyline>
            <path d="M126.504,45.416 L121.52,45.416 L121.52,42.784 L126.448,42.784 L126.448,45.416 L126.504,45.416 Z M121.632,45.304 L126.448,45.304 L126.448,42.784 L121.632,42.784 L121.632,45.304 Z" id="Shape" fill="#434242"></path>
            <g id="Group" transform="translate(25.760000, 6.160000)" fill="#1B1B1F">
                <path d="M96.432,8.736 L94.696,7.28 L91.56,6.272 L91.56,11.48 L89.768,11.48 L89.768,10.584 C89.768,7 87.36,5.88 84.392,6.272 L84.168,6.272 C81.76,6.272 78.904,7.504 78.904,11.032 L78.904,11.48 L76.776,11.48 L76.776,0.84 L72.016,0.84 L72.016,2.744 L69.944,2.744 L69.944,1.456 L65.464,3.136 L65.464,6.328 L64.232,6.328 L64.232,8.456 L62.048,8.456 C61.096,6.664 59.08,6.16 57.288,6.16 L57.12,6.16 C56.224,6.16 55.216,6.328 54.376,6.776 C51.8,5.152 50.232,6.72 49.448,8.344 L49.392,8.288 L49.392,6.496 L43.12,6.496 L43.12,26.152 L38.08,26.152 L38.08,34.552 C38.08,36.008 36.008,36.064 36.008,34.552 L36.008,22.68 L42.392,22.68 L42.392,11.144 C42.392,7.56 39.536,6.384 37.072,6.384 L36.456,6.384 L36.456,5.208 L36.4,5.208 L40.04,0.448 L36.12,0.448 L33.824,5.208 L33.824,7.112 C32.592,7.84 31.64,9.072 31.64,11.144 L31.64,12.544 L29.344,12.544 L29.344,11.48 C29.68,5.376 24.416,5.264 22.736,8.792 L22.736,0.448 L10.696,0.448 L10.696,34.944 L5.768,34.944 L5.768,0.504 L0.224,0.504 L0.224,39.2 L22.736,39.2 L22.736,37.632 C23.8,40.488 29.344,40.208 29.344,34.272 L29.344,34.16 L31.64,34.16 L31.64,34.496 C30.632,38.248 34.384,39.424 36.792,39.424 C36.792,39.424 42.672,39.872 42.392,35.168 L42.392,31.472 L43.12,31.472 L43.12,39.256 L49.448,39.256 L49.448,10.528 L49.504,10.528 C49.952,9.912 50.904,9.912 51.968,10.696 L51.968,16.184 L56.28,16.184 L56.28,11.48 C56.28,10.024 58.352,9.968 58.352,11.48 L58.352,17.304 C54.04,19.992 51.912,20.832 51.968,24.136 L51.968,36.288 C51.968,39.424 55.832,40.824 58.352,37.688 L58.352,39.256 L62.72,39.256 L62.72,32.312 L65.632,32.312 L65.632,36.456 C65.632,40.208 69.16,39.816 72.24,38.472 L72.24,39.256 L77,39.256 L77,33.152 L79.128,33.152 L79.128,34.44 C79.128,38.024 82.04,39.424 85.064,39.536 C86.128,39.592 88.928,39.592 89.936,37.576 L89.936,33.152 L91.728,33.152 L91.728,39.2 L103.432,39.2 L103.432,11.424 C103.264,5.432 97.72,5.32 96.432,8.736 Z" id="Shape"></path>
                <path d="M85.624,39.592 C85.456,39.592 85.232,39.592 85.064,39.592 C83.888,39.536 82.264,39.312 80.92,38.36 C79.688,37.464 79.072,36.176 79.072,34.496 L79.072,33.264 L77,33.264 L77,39.368 L72.184,39.368 L72.184,38.584 C68.88,39.984 67.312,39.48 66.696,39.088 C65.968,38.584 65.576,37.744 65.576,36.512 L65.576,32.424 L62.72,32.424 L62.72,39.368 L58.296,39.368 L58.296,37.856 C56.84,39.592 55.104,39.816 53.984,39.368 C52.696,38.92 51.912,37.744 51.912,36.344 L51.912,24.136 C51.856,21.224 53.536,20.216 56.84,18.2 C57.288,17.92 57.792,17.64 58.296,17.304 L58.296,11.48 C58.296,10.752 57.792,10.416 57.288,10.416 C56.784,10.416 56.28,10.808 56.28,11.48 L56.28,16.24 L51.912,16.24 L51.912,10.752 C51.296,10.304 50.68,10.08 50.176,10.192 C49.896,10.248 49.672,10.36 49.504,10.584 L49.448,10.584 L49.448,39.312 L43.064,39.312 L43.064,31.528 L42.392,31.528 L42.392,35.168 C42.448,36.4 42.112,37.352 41.384,38.08 C39.76,39.648 36.792,39.424 36.736,39.424 C35.224,39.424 33.04,38.92 32.032,37.576 C31.416,36.736 31.248,35.672 31.584,34.44 L31.584,34.16 L29.344,34.16 L29.344,34.216 C29.344,37.52 27.608,39.032 26.04,39.312 C24.64,39.592 23.24,38.92 22.736,37.744 L22.736,39.2 L0.168,39.2 L0.168,0.448 L5.768,0.448 L5.768,34.888 L10.64,34.888 L10.64,0.392 L22.736,0.392 L22.736,8.624 C23.576,7 25.256,6.104 26.824,6.496 C28.56,6.944 29.512,8.792 29.344,11.48 L29.344,12.488 L31.584,12.488 L31.584,11.144 C31.584,9.296 32.312,7.952 33.768,7.112 L33.768,5.208 L36.064,0.448 L40.04,0.448 L39.984,0.504 L36.4,5.208 L36.4,6.384 L36.96,6.384 C39.536,6.384 42.336,7.616 42.336,11.2 L42.336,22.792 L35.952,22.792 L35.952,34.608 C35.952,35.336 36.456,35.672 36.96,35.672 C37.464,35.672 37.968,35.28 37.968,34.608 L37.968,26.096 L43.008,26.096 L43.008,6.44 L49.336,6.44 L49.336,8.232 C49.728,7.448 50.456,6.44 51.52,6.104 C52.36,5.88 53.256,6.048 54.264,6.664 C54.992,6.272 56,6.048 57.008,6.048 L57.176,6.048 C60.088,6.048 61.376,7.28 61.936,8.344 L64.064,8.344 L64.064,6.216 L65.296,6.216 L65.296,3.024 L69.832,1.344 L69.832,2.632 L71.848,2.632 L71.848,0.728 L76.664,0.728 L76.664,11.368 L78.736,11.368 L78.736,10.976 C78.736,7.448 81.592,6.16 84.056,6.16 L84.28,6.16 C86.016,5.936 87.472,6.216 88.368,7.056 C89.208,7.784 89.656,8.96 89.656,10.472 L89.656,11.312 L91.392,11.312 L91.392,6.104 L94.584,7.112 L96.264,8.568 C96.88,7 98.392,6.104 100.016,6.384 C100.912,6.552 101.696,7 102.256,7.784 C102.928,8.68 103.264,9.856 103.32,11.312 L103.32,39.144 L91.56,39.144 L91.56,33.208 L89.824,33.208 L89.824,37.632 C89.152,39.256 87.08,39.592 85.624,39.592 Z M76.944,33.096 L79.128,33.096 L79.128,34.44 C79.128,36.064 79.744,37.352 80.976,38.248 C82.264,39.2 83.888,39.424 85.064,39.48 C86.464,39.536 88.984,39.424 89.88,37.52 L89.88,33.096 L91.728,33.096 L91.728,39.144 L103.376,39.144 L103.376,11.424 C103.32,9.296 102.424,6.944 100.128,6.552 C98.504,6.272 96.992,7.168 96.432,8.736 L96.432,8.792 L94.64,7.336 L91.56,6.328 L91.56,11.536 L89.712,11.536 L89.712,10.584 C89.712,9.072 89.264,7.952 88.424,7.168 C87.528,6.384 86.072,6.048 84.336,6.272 L84.112,6.272 C81.704,6.272 78.904,7.504 78.904,10.976 L78.904,11.48 L76.72,11.48 L76.72,0.84 L72.016,0.84 L72.016,2.8 L69.888,2.8 L69.888,1.512 L65.464,3.192 L65.464,6.384 L64.232,6.384 L64.232,8.512 L61.992,8.512 C61.432,7.448 60.144,6.216 57.232,6.216 L57.12,6.216 C56.112,6.216 55.104,6.44 54.376,6.832 C53.368,6.216 52.472,5.992 51.688,6.272 C50.568,6.608 49.896,7.616 49.504,8.4 L49.504,8.456 L49.392,8.344 L49.392,6.552 L43.176,6.552 L43.176,26.208 L38.136,26.208 L38.136,34.552 C38.136,35.28 37.576,35.672 37.072,35.672 C36.568,35.672 36.008,35.336 36.008,34.552 L36.008,22.624 L42.392,22.624 L42.392,11.144 C42.392,7.672 39.648,6.44 37.128,6.44 L36.4,6.44 L36.4,5.264 L36.288,5.264 L36.344,5.208 L39.928,0.504 L36.064,0.504 L33.768,5.264 L33.768,7.168 C32.312,8.008 31.584,9.352 31.584,11.2 L31.584,12.656 L29.232,12.656 L29.232,11.536 C29.4,8.904 28.448,7.056 26.768,6.608 C25.2,6.216 23.52,7.168 22.68,8.848 L22.624,8.848 L22.624,0.504 L10.752,0.504 L10.752,35 L5.768,35 L5.768,0.56 L0.28,0.56 L0.28,39.2 L22.736,39.2 L22.736,37.688 L22.792,37.688 C23.24,38.92 24.64,39.648 26.096,39.368 C27.664,39.088 29.344,37.632 29.344,34.328 L29.344,34.16 L31.696,34.16 L31.696,34.552 C31.36,35.784 31.528,36.792 32.144,37.632 C33.152,38.976 35.28,39.48 36.792,39.48 C36.848,39.48 39.816,39.704 41.384,38.136 C42.112,37.408 42.448,36.456 42.336,35.28 L42.336,31.528 L43.12,31.528 L43.12,39.2 L49.392,39.2 L49.392,10.472 L49.448,10.472 C49.616,10.248 49.896,10.08 50.176,10.024 C50.68,9.968 51.296,10.136 51.968,10.64 L51.968,16.128 L56.224,16.128 L56.224,11.48 C56.224,10.752 56.784,10.36 57.288,10.36 C57.792,10.36 58.352,10.696 58.352,11.48 L58.352,17.304 C57.848,17.64 57.344,17.92 56.896,18.2 C53.592,20.216 51.912,21.224 51.968,24.136 L51.968,36.288 C51.968,37.688 52.752,38.808 53.984,39.256 C55.16,39.648 56.896,39.48 58.296,37.688 L58.352,37.632 L58.352,39.2 L62.664,39.2 L62.664,32.256 L65.632,32.256 L65.632,36.456 C65.632,37.632 65.968,38.472 66.696,38.976 C68.208,39.984 70.784,39.088 72.184,38.472 L72.24,38.472 L72.24,39.2 L76.944,39.2 L76.944,33.096 Z" id="Shape"></path>
            </g>
            <g id="Group" transform="translate(23.520000, 5.040000)">
                <polygon id="Shape" fill="#FFFFFF" points="0.504 0.616 5.432 0.616 5.432 34.552 11.032 34.552 11.032 38.808 0.504 38.808"></polygon>
                <path d="M11.312,39.088 L0.224,39.088 L0.224,0.336 L5.768,0.336 L5.768,34.272 L11.368,34.272 L11.368,39.088 L11.312,39.088 Z M0.784,38.528 L10.696,38.528 L10.696,34.888 L5.096,34.888 L5.096,0.896 L0.784,0.896 L0.784,38.528 Z" id="Shape" fill="#1B1B1F"></path>
            </g>
            <g id="Group" transform="translate(40.880000, 5.040000)">
                <g id="Shape">
                    <path d="M5.544,8.232 C6.832,4.76 11.928,4.928 11.928,10.92 L11.928,33.656 C11.76,39.984 6.328,40.32 5.544,36.792 L5.544,38.696 L0.672,38.696 L0.672,0.616 L5.544,0.616 L5.544,8.232" fill="#FFFFFF"></path>
                    <path d="M8.176,39.368 C7.224,39.368 6.384,38.92 5.88,38.192 L5.88,38.696 C5.88,38.864 5.768,38.976 5.6,38.976 L0.728,38.976 C0.56,38.976 0.448,38.864 0.448,38.696 L0.448,0.616 C0.448,0.448 0.56,0.336 0.728,0.336 L5.6,0.336 C5.768,0.336 5.88,0.448 5.88,0.616 L5.88,7.056 C6.664,5.992 7.896,5.488 9.128,5.712 C10.64,5.992 12.264,7.504 12.264,10.92 L12.264,33.656 C12.152,37.352 10.304,39.144 8.512,39.312 C8.344,39.312 8.288,39.368 8.176,39.368 Z M5.544,36.512 C5.712,36.512 5.824,36.624 5.824,36.736 C6.104,38.024 7.168,38.864 8.4,38.752 C9.912,38.584 11.536,36.96 11.592,33.656 L11.592,10.92 C11.592,7.84 10.248,6.496 8.96,6.272 C7.616,6.048 6.328,6.888 5.824,8.344 C5.768,8.456 5.656,8.568 5.488,8.512 C5.32,8.512 5.264,8.344 5.264,8.232 L5.264,0.896 L1.008,0.896 L1.008,38.36 L5.264,38.36 L5.264,36.736 C5.264,36.624 5.376,36.512 5.544,36.512 C5.544,36.512 5.544,36.512 5.544,36.512 Z" fill="#1B1B1F"></path>
                </g>
                <g transform="translate(5.040000, 9.520000)" fill="#1B1B1F" id="Shape">
                    <path d="M2.352,24.752 C2.352,26.208 0.448,26.264 0.448,24.752 L0.448,1.232 C0.448,-0.28 2.352,-0.224 2.352,1.232 L2.352,24.752 Z"></path>
                    <path d="M1.4,25.872 C0.952,25.872 0.448,25.536 0.448,24.752 L0.448,1.232 C0.448,0.448 0.952,0.112 1.4,0.112 C1.904,0.112 2.408,0.504 2.408,1.232 L2.408,24.752 C2.408,25.48 1.904,25.872 1.4,25.872 Z M1.4,0.168 C0.952,0.168 0.504,0.504 0.504,1.232 L0.504,24.752 C0.504,25.48 0.952,25.816 1.4,25.816 C1.848,25.816 2.352,25.424 2.352,24.752 L2.352,1.232 C2.296,0.504 1.848,0.168 1.4,0.168 Z"></path>
                </g>
            </g>
            <g id="Group" transform="translate(54.320000, 5.600000)">
                <g transform="translate(0.000000, 5.040000)" id="Shape">
                    <path d="M7.112,20.216 L11.424,20.216 L11.424,28.448 C11.424,32.032 8.568,33.376 6.104,33.376 L5.936,33.376 C3.528,33.376 0.672,31.976 0.672,28.448 L0.672,5.096 C0.672,1.512 3.528,0.28 5.936,0.28 L6.104,0.28 C8.568,0.28 11.424,1.512 11.424,5.096 L11.424,16.688 L5.04,16.688 L5.04,28.672 C5.04,30.184 7.112,30.128 7.112,28.672 L7.112,20.216 Z" fill="#FFFFFF"></path>
                    <path d="M6.104,33.656 L5.936,33.656 C3.248,33.656 0.392,32.032 0.392,28.448 L0.392,5.096 C0.392,1.288 3.416,0 5.936,0 L6.104,0 C8.68,0 11.704,1.344 11.704,5.096 L11.704,16.968 L5.32,16.968 L5.32,28.672 C5.32,29.288 5.712,29.456 6.048,29.456 C6.384,29.456 6.776,29.176 6.776,28.672 L6.776,19.936 L11.704,19.936 L11.704,28.448 C11.704,32.088 8.904,33.656 6.104,33.656 Z M5.936,0.56 C3.528,0.56 0.952,1.736 0.952,5.096 L0.952,28.448 C0.952,32.088 4.088,33.096 5.936,33.096 L6.104,33.096 C8.4,33.096 11.144,31.864 11.144,28.448 L11.144,20.496 L7.448,20.496 L7.448,28.672 C7.448,29.624 6.776,30.072 6.104,30.072 C5.432,30.072 4.76,29.568 4.76,28.672 L4.76,16.408 L11.144,16.408 L11.144,5.096 C11.144,1.792 8.568,0.56 6.104,0.56 L5.936,0.56 Z" fill="#1B1B1F"></path>
                </g>
                <g transform="translate(5.040000, 8.960000)" fill="#1B1B1F" id="Shape">
                    <path d="M0.056,9.8 L0.056,1.232 C0.056,-0.28 2.128,-0.224 2.128,1.232 L2.128,9.8 L0.056,9.8"></path>
                    <path d="M2.184,9.856 L0,9.856 L0,1.232 C0,0.448 0.56,0.112 1.064,0.112 C1.624,0.112 2.128,0.504 2.128,1.232 L2.128,9.856 L2.184,9.856 Z M0.112,9.744 L2.128,9.744 L2.128,1.232 C2.128,0.504 1.624,0.168 1.12,0.168 C0.616,0.168 0.112,0.504 0.112,1.232 L0.112,9.744 Z"></path>
                </g>
                <g transform="translate(3.920000, 0.000000)" id="Shape">
                    <polygon fill="#FFFFFF" points="0.784 3.752 3.304 3.752 6.16 0.392 2.408 0.392"></polygon>
                    <path d="M3.472,4.032 L0.336,4.032 L2.24,0.056 L6.832,0.056 L3.472,4.032 Z M1.288,3.472 L3.192,3.472 L5.544,0.728 L2.632,0.728 L1.288,3.472 Z" fill="#1B1B1F"></path>
                </g>
            </g>
            <g id="Group" transform="translate(67.200000, 10.080000)">
                <path d="M5.432,5.04 C6.328,3.472 7.336,4.368 8.792,5.824 C10.192,7.28 13.328,3.416 10.64,1.456 C7.952,-0.448 6.272,1.232 5.432,2.912 L5.376,2.8 L5.376,1.12 L0.56,1.12 L0.56,33.656 L5.432,33.656 L5.432,5.04 Z" id="Shape" fill="#FFFFFF"></path>
                <path d="M5.712,33.936 L0.224,33.936 L0.224,0.84 L5.656,0.84 L5.656,1.904 C6.104,1.232 6.776,0.616 7.672,0.392 C8.624,0.168 9.688,0.448 10.808,1.232 C11.704,1.904 12.152,2.856 11.928,3.92 C11.76,5.04 10.92,6.104 9.968,6.384 C9.408,6.552 8.904,6.44 8.568,6.048 C7.672,5.152 6.944,4.48 6.44,4.536 C6.216,4.592 5.992,4.76 5.768,5.152 L5.768,33.936 L5.712,33.936 Z M0.84,33.376 L5.096,33.376 L5.096,4.984 L5.152,4.928 C5.488,4.312 5.88,4.032 6.328,3.976 C7.112,3.864 7.952,4.592 9.016,5.656 C9.24,5.88 9.52,5.936 9.8,5.824 C10.416,5.656 11.2,4.816 11.368,3.808 C11.48,3.248 11.368,2.408 10.472,1.736 C9.52,1.064 8.624,0.84 7.896,1.008 C6.832,1.288 6.16,2.296 5.768,3.08 L5.488,3.64 L5.152,2.912 L5.152,1.456 L0.952,1.456 L0.952,33.376 L0.84,33.376 Z" id="Shape" fill="#1B1B1F"></path>
            </g>
            <g id="Group" transform="translate(74.480000, 10.080000)">
                <g id="Shape">
                    <path d="M0.616,28.784 L0.616,18.536 C0.56,15.176 2.688,14.336 7,11.648 L7,5.544 C7.056,3.92 4.928,4.088 4.928,5.544 L4.928,10.584 L0.616,10.584 L0.616,5.432 C0.616,1.848 3.472,0.672 5.88,0.672 L6.048,0.672 C8.512,0.672 11.368,1.904 11.368,5.432 L11.368,33.656 L7,33.656 L7,32.088 C4.48,35.224 0.672,34.216 0.616,30.688 L0.616,28.784 Z" fill="#FFFFFF"></path>
                    <path d="M3.584,34.272 C3.192,34.272 2.856,34.216 2.52,34.104 C1.176,33.656 0.336,32.368 0.336,30.688 L0.336,18.536 C0.28,15.4 2.128,14.28 5.432,12.264 C5.824,12.04 6.272,11.76 6.72,11.48 L6.72,5.544 C6.72,5.152 6.608,4.928 6.384,4.76 C6.16,4.648 5.88,4.648 5.656,4.76 C5.488,4.872 5.264,5.04 5.264,5.488 L5.264,10.808 L0.336,10.808 L0.336,5.376 C0.336,1.624 3.36,0.336 5.88,0.336 L6.048,0.336 C8.624,0.336 11.648,1.68 11.648,5.376 L11.648,33.88 L6.72,33.88 L6.72,32.816 C5.768,33.768 4.648,34.272 3.584,34.272 Z M6.048,4.088 C6.272,4.088 6.496,4.144 6.72,4.256 C6.944,4.424 7.336,4.76 7.336,5.544 L7.336,11.816 L7.168,11.928 C6.664,12.264 6.16,12.544 5.712,12.824 C2.408,14.84 0.896,15.792 0.896,18.536 L0.896,30.688 C0.896,32.088 1.568,33.152 2.688,33.544 C4.032,33.992 5.544,33.376 6.72,31.92 L7.28,31.248 L7.28,33.376 L11.032,33.376 L11.032,5.432 C11.032,2.128 8.456,0.952 5.992,0.952 L5.824,0.952 C3.416,0.952 0.84,2.128 0.84,5.432 L0.84,10.304 L4.536,10.304 L4.536,5.544 C4.536,4.984 4.816,4.536 5.264,4.256 C5.544,4.144 5.768,4.088 6.048,4.088 Z" fill="#1B1B1F"></path>
                </g>
                <g transform="translate(5.040000, 15.680000)" fill="#1B1B1F" id="Shape">
                    <path d="M0.112,2.968 C0.112,1.512 1.512,0.728 1.96,0.448 L1.96,13.496 C1.96,14.952 0.112,15.008 0.112,13.496 L0.112,2.968"></path>
                    <path d="M1.008,14.616 C0.56,14.616 0.056,14.28 0.056,13.496 L0.056,2.968 C0.056,1.568 1.288,0.784 1.848,0.448 L1.96,0.392 L1.96,13.496 C2.016,14.224 1.512,14.616 1.008,14.616 Z M1.904,0.504 C1.344,0.84 0.112,1.624 0.112,2.968 L0.112,13.496 C0.112,14.224 0.56,14.56 1.008,14.56 C1.456,14.56 1.904,14.168 1.904,13.496 L1.904,0.504 Z"></path>
                </g>
            </g>
            <g id="Group" transform="translate(86.800000, 5.600000)">
                <path d="M6.104,9.24 L7.336,9.24 L7.336,5.6 L6.104,5.6 L6.16,0.616 L1.68,2.128 L1.68,5.6 L0.448,5.6 L0.448,9.24 L1.68,9.24 L1.68,35.672 C1.68,39.144 5.488,38.584 7.504,37.632 L7.504,34.664 C6.664,34.664 6.216,33.824 6.216,32.536 C6.104,31.696 6.104,18.592 6.104,9.24 Z" id="Shape" fill="#FFFFFF"></path>
                <path d="M4.48,38.64 C3.808,38.64 3.136,38.528 2.576,38.136 C1.792,37.632 1.4,36.792 1.4,35.616 L1.4,9.52 L0.168,9.52 L0.168,5.264 L1.4,5.264 L1.4,1.904 L6.496,0.168 L6.44,5.264 L7.672,5.264 L7.672,9.52 L6.44,9.52 C6.44,18.48 6.44,31.64 6.552,32.48 C6.552,32.928 6.608,34.328 7.56,34.328 L7.84,34.328 L7.84,37.8 L7.672,37.856 C6.888,38.248 5.656,38.64 4.48,38.64 Z M0.728,8.96 L1.96,8.96 L1.96,35.672 C1.96,36.624 2.24,37.296 2.856,37.688 C3.92,38.36 5.824,38.08 7.168,37.464 L7.168,34.944 C6.328,34.776 5.88,33.88 5.88,32.536 C5.768,31.696 5.768,18.704 5.768,9.24 L5.768,8.96 L7,8.96 L7,5.936 L5.768,5.936 L5.824,1.064 L1.96,2.352 L1.96,5.936 L0.728,5.936 L0.728,8.96 Z" id="Shape" fill="#1B1B1F"></path>
            </g>
            <g id="Group" transform="translate(95.200000, 5.040000)">
                <path d="M0.616,6.16 L5.04,6.16 L5.04,38.696 L0.616,38.696 L0.616,6.16 Z M0.616,0.672 L5.32,0.672 L5.32,4.704 L0.616,4.704 L0.616,0.672 Z" id="Shape" fill="#FFFFFF"></path>
                <path d="M5.32,38.976 L0.28,38.976 L0.28,5.88 L5.32,5.88 L5.32,38.976 Z M0.896,38.416 L4.704,38.416 L4.704,6.496 L0.896,6.496 L0.896,38.416 Z M5.6,4.984 L0.28,4.984 L0.28,0.392 L5.6,0.392 L5.6,4.984 Z M0.896,4.424 L4.984,4.424 L4.984,1.008 L0.896,1.008 L0.896,4.424 Z" id="Shape" fill="#1B1B1F"></path>
            </g>
            <g id="Group" transform="translate(101.920000, 10.640000)">
                <g id="Shape">
                    <path d="M11.368,20.216 L11.368,28.448 C11.368,32.032 8.568,33.32 6.16,33.32 L5.992,33.32 C3.528,33.32 0.616,31.976 0.616,28.448 L0.616,5.096 C0.616,1.512 3.472,0.28 5.936,0.28 L6.104,0.28 C8.512,0.28 11.368,1.512 11.368,5.096 L11.368,20.216 Z" fill="#FFFFFF"></path>
                    <path d="M6.16,33.6 L5.992,33.6 C3.136,33.6 0.336,31.976 0.336,28.448 L0.336,5.096 C0.336,1.288 3.36,0 5.936,0 L6.104,0 C8.68,0 11.648,1.344 11.648,5.096 L11.648,28.448 C11.648,32.256 8.68,33.6 6.16,33.6 Z M5.936,0.56 C3.528,0.56 0.896,1.736 0.896,5.096 L0.896,28.448 C0.896,31.584 3.416,33.04 5.992,33.04 L6.16,33.04 C8.4,33.04 11.088,31.864 11.088,28.448 L11.088,5.096 C11.088,1.792 8.512,0.56 6.104,0.56 L5.936,0.56 Z" fill="#1B1B1F"></path>
                </g>
                <g transform="translate(4.480000, 3.920000)" fill="#1B1B1F" id="Shape">
                    <path d="M2.52,24.64 C2.52,26.096 0.448,26.152 0.448,24.64 L0.448,1.12 C0.448,-0.392 2.52,-0.336 2.52,1.12 L2.52,24.64"></path>
                    <path d="M1.456,25.76 C0.952,25.76 0.392,25.424 0.392,24.64 L0.392,1.12 C0.392,0.336 0.952,0 1.456,0 C2.016,0 2.52,0.392 2.52,1.12 L2.52,24.64 C2.576,25.368 2.016,25.76 1.456,25.76 Z M1.456,0.056 C0.952,0.056 0.448,0.392 0.448,1.12 L0.448,24.64 C0.448,25.368 0.952,25.704 1.456,25.704 C1.96,25.704 2.464,25.312 2.464,24.64 L2.464,1.12 C2.464,0.392 1.96,0.056 1.456,0.056 Z"></path>
                </g>
            </g>
            <g id="Group" transform="translate(114.800000, 10.640000)">
                <path d="M7.504,33.208 L7.504,5.152 C7.504,3.696 5.544,3.64 5.544,5.152 L5.544,33.208 L0.672,33.208 L0.672,0.56 L5.544,0.56 L5.544,2.688 C6.832,-0.728 11.928,-0.616 11.928,5.376 L11.928,33.152 L7.504,33.208 Z" id="Shape" fill="#FFFFFF"></path>
                <path d="M7.224,33.544 L7.224,5.152 C7.224,4.592 6.888,4.368 6.552,4.368 C6.272,4.368 5.88,4.592 5.88,5.152 L5.88,33.488 L0.392,33.488 L0.392,0.28 L5.88,0.28 L5.88,1.512 C6.664,0.504 7.896,-0.056 9.128,0.168 C10.64,0.448 12.264,1.96 12.264,5.376 L12.264,33.432 L7.224,33.544 Z M0.952,32.928 L5.208,32.928 L5.208,5.152 C5.208,4.2 5.824,3.752 6.496,3.752 C7.168,3.752 7.784,4.256 7.784,5.152 L7.784,32.872 L11.592,32.816 L11.592,5.376 C11.592,2.352 10.248,1.008 8.96,0.784 C7.616,0.56 6.328,1.4 5.768,2.8 L5.152,2.688 L5.152,0.84 L0.896,0.84 L0.896,32.928 L0.952,32.928 Z" id="Shape" fill="#1B1B1F"></path>
            </g>
            <g id="Group" transform="translate(34.160000, 5.040000)">
                <path d="M0.392,0.616 L4.984,0.616 L4.984,4.704 L0.392,4.704 L0.392,0.616 Z M0.392,6.16 L4.872,6.16 L4.872,38.808 L0.392,38.808 C0.392,38.808 0.392,6.16 0.392,6.16 Z" id="Shape" fill="#FFFFFF"></path>
                <path d="M5.152,39.088 L0.056,39.088 L0.056,5.88 L5.152,5.88 L5.152,39.088 Z M0.672,38.528 L4.536,38.528 L4.536,6.44 L0.672,6.44 L0.672,38.528 Z M5.264,4.984 L0.056,4.984 L0.056,0.336 L5.264,0.336 L5.264,4.984 Z M0.672,4.424 L4.648,4.424 L4.648,0.952 L0.672,0.952 L0.672,4.424 Z" id="Shape" fill="#1B1B1F"></path>
            </g>
        </g>
    </g>
</svg>