<?xml version="1.0" encoding="UTF-8"?>
<svg width="1080px" height="1920px" viewBox="0 0 1080 1920" version="1.1" xmlns="http://www.w3.org/2000/svg" xmlns:xlink="http://www.w3.org/1999/xlink">
    <!-- Generator: Sketch 49.3 (51167) - http://www.bohemiancoding.com/sketch -->
    <title>Artboard</title>
    <desc>Created with Sketch.</desc>
    <defs></defs>
    <g id="Artboard" stroke="none" stroke-width="1" fill="none" fill-rule="evenodd">
        <path d="M109.92,241.8 L109.92,207.144 L119.808,207.144 L119.808,241.8 L109.92,241.8 Z M125.952,241.8 L125.952,223.176 C125.952,222.6 125.76,218.424 125.76,217.704 L134.688,217.704 L134.784,221.688 C136.512,218.568 139.296,217.128 142.944,217.128 C144.336,217.128 148.944,217.368 150.528,221.592 C152.784,217.848 156.528,217.08 159.024,217.08 C163.536,217.08 165.696,219.432 166.608,220.824 C167.904,222.888 167.904,225.816 167.904,228.6 L167.904,241.8 L158.88,241.8 L158.88,228.168 C158.88,225.72 158.88,222.84 155.28,222.84 C154.08,222.84 152.736,223.272 151.92,224.856 C151.632,225.432 151.44,226.2 151.44,228.264 L151.44,241.8 L142.416,241.8 L142.416,228.072 C142.416,225.912 142.416,222.84 138.816,222.84 C135.744,222.84 134.976,225.384 134.976,228.072 L134.976,241.8 L125.952,241.8 Z M197.904,241.8 L189.264,241.8 C189.072,240.936 188.976,239.88 188.976,238.344 C187.872,239.976 186,242.28 181.056,242.28 C175.152,242.28 172.56,239.064 172.56,234.792 C172.56,228.216 178.656,225.816 189.024,226.248 C189.072,223.656 188.736,221.256 186,221.256 C184.32,221.256 182.736,222.168 182.784,224.904 L174.144,224.904 C174.192,223.8 174.192,221.736 176.016,219.864 C177.888,217.944 181.632,216.84 186,216.84 C188.16,216.84 192.768,217.128 195.312,219.624 C196.848,221.112 197.424,223.368 197.424,225.96 L197.424,237.192 C197.424,238.92 197.472,239.4 197.904,241.8 Z M188.976,230.424 C185.136,230.472 181.44,230.52 181.44,233.976 C181.44,235.752 182.592,237.24 184.752,237.24 C185.712,237.24 187.392,236.856 188.304,234.936 C189.024,233.4 189.024,231.432 188.976,230.424 Z M220.896,217.56 L229.392,217.56 L229.392,240.024 C229.392,242.904 228.816,246.312 225.552,248.616 C223.488,250.104 220.56,251.304 215.616,251.304 C212.88,251.304 208.32,250.92 205.584,248.472 C203.472,246.6 203.424,244.344 203.376,243.096 L211.872,243.096 C211.92,244.92 213.216,246.168 215.808,246.168 C220.32,246.168 220.608,242.904 220.608,240.312 L220.608,237.144 C218.16,240.792 214.224,241.032 212.832,241.032 C207.744,241.032 202.128,237.864 202.128,229.08 C202.128,222.552 205.584,217.128 212.928,217.128 C217.584,217.128 219.696,219.288 220.896,221.208 L220.896,217.56 Z M220.464,228.888 C220.464,227.64 220.464,222.168 216.096,222.168 C213.072,222.168 211.44,224.952 211.44,228.984 C211.44,231.528 212.016,235.704 216,235.704 C220.32,235.704 220.464,230.616 220.464,228.888 Z M259.776,231.576 L242.496,231.576 C242.496,232.872 242.496,237.432 247.104,237.432 C249.504,237.432 250.992,236.184 251.232,233.928 L259.632,233.928 C258.96,239.976 253.296,242.328 247.056,242.328 C238.656,242.328 234.144,238.104 234.144,230.136 C234.144,222.072 238.08,216.84 246.96,216.84 C253.68,216.84 256.8,219.576 258.432,222.984 C259.488,225.048 259.776,227.352 259.776,231.576 Z M242.592,226.68 L251.28,226.68 C251.184,225.288 250.896,221.64 246.96,221.64 C243.024,221.64 242.688,225.528 242.592,226.68 Z M297.6,207.144 L306.624,207.144 L306.624,235.8 C306.624,237.816 306.72,239.784 306.864,241.8 L298.32,241.8 L298.128,238.248 C297.168,239.64 295.296,242.376 289.968,242.376 C281.664,242.376 279.312,235.656 279.312,229.752 C279.312,224.616 280.704,222.216 282.336,220.44 C284.544,218.088 287.232,217.176 290.256,217.176 C294.288,217.176 296.016,218.856 297.6,220.536 L297.6,207.144 Z M293.136,237.048 C296.4,237.048 297.696,233.784 297.696,229.656 C297.696,225.624 296.4,222.456 293.232,222.456 C289.2,222.456 288.672,227.544 288.672,229.8 C288.672,232.104 289.152,237.048 293.136,237.048 Z M337.104,231.576 L319.824,231.576 C319.824,232.872 319.824,237.432 324.432,237.432 C326.832,237.432 328.32,236.184 328.56,233.928 L336.96,233.928 C336.288,239.976 330.624,242.328 324.384,242.328 C315.984,242.328 311.472,238.104 311.472,230.136 C311.472,222.072 315.408,216.84 324.288,216.84 C331.008,216.84 334.128,219.576 335.76,222.984 C336.816,225.048 337.104,227.352 337.104,231.576 Z M319.92,226.68 L328.608,226.68 C328.512,225.288 328.224,221.64 324.288,221.64 C320.352,221.64 320.016,225.528 319.92,226.68 Z M375.504,207.288 L375.504,213.096 C375.12,213 374.208,212.808 373.008,212.808 C369.312,212.808 369.408,215.784 369.456,217.8 L375.264,217.8 L375.264,223.656 L369.456,223.656 L369.456,241.8 L360.624,241.8 L360.624,223.656 L355.968,223.656 L355.968,217.8 L360.768,217.8 C360.624,212.04 360.72,207 370.176,207 C372.624,207 374.496,207.192 375.504,207.288 Z M378.144,229.656 C378.144,222.264 382.704,216.888 392.256,216.888 C400.08,216.888 406.176,220.824 406.176,229.368 C406.176,232.872 405.168,236.424 402.672,238.92 C400.656,240.888 397.68,242.376 392.736,242.376 C387.408,242.376 383.952,241.08 381.6,238.824 C378.816,236.184 378.144,232.584 378.144,229.656 Z M387.504,229.704 C387.504,231.288 387.648,233.64 388.656,235.416 C389.712,237.24 391.344,237.336 392.16,237.336 C396.096,237.336 396.864,233.064 396.864,229.704 C396.864,225.528 395.856,222.024 392.256,222.024 C388.272,222.024 387.504,226.104 387.504,229.704 Z M411.408,241.8 L411.408,222.84 L411.168,217.704 L420.192,217.704 L420.288,221.4 C421.392,219.576 423.312,217.176 428.304,217.176 C437.136,217.176 437.136,223.896 437.136,227.208 L437.136,241.8 L428.112,241.8 L428.112,227.976 C428.112,226.296 428.112,222.888 424.416,222.888 C420.384,222.888 420.384,227.112 420.384,227.976 L420.384,241.8 L411.408,241.8 Z M460.272,207.144 L469.296,207.144 L469.296,235.8 C469.296,237.816 469.392,239.784 469.536,241.8 L460.992,241.8 L460.8,238.248 C459.84,239.64 457.968,242.376 452.64,242.376 C444.336,242.376 441.984,235.656 441.984,229.752 C441.984,224.616 443.376,222.216 445.008,220.44 C447.216,218.088 449.904,217.176 452.928,217.176 C456.96,217.176 458.688,218.856 460.272,220.536 L460.272,207.144 Z M455.808,237.048 C459.072,237.048 460.368,233.784 460.368,229.656 C460.368,225.624 459.072,222.456 455.904,222.456 C451.872,222.456 451.344,227.544 451.344,229.8 C451.344,232.104 451.824,237.048 455.808,237.048 Z M41.712,253.656 L47.952,253.656 C44.496,265.32 43.728,268.968 43.728,274.584 C43.728,279.96 44.4,284.952 48,295.656 L41.664,295.656 C39.408,290.712 36,283.128 36,274.824 C36,267.192 39.264,259.416 41.712,253.656 Z M52.656,255.144 L61.728,255.144 L61.728,268.248 C64.224,265.128 68.496,265.08 69.36,265.08 C73.968,265.08 76.752,267.528 78.288,270.12 C79.584,272.376 79.824,275.016 79.824,277.608 C79.824,282.312 78.72,284.952 76.704,287.112 C74.016,290.04 70.944,290.328 69.12,290.328 C67.536,290.328 64.08,290.184 61.104,286.248 L60.816,289.8 L52.368,289.8 C52.608,287.064 52.656,283.944 52.656,283.8 L52.656,255.144 Z M61.44,277.608 C61.44,279.192 61.728,284.904 66,284.904 C70.512,284.904 70.512,279.144 70.512,277.56 C70.512,275.112 70.224,270.312 66.192,270.312 C61.728,270.312 61.44,275.832 61.44,277.608 Z M85.056,289.8 L85.056,255.144 L94.08,255.144 L94.08,289.8 L85.056,289.8 Z M124.608,289.8 L115.968,289.8 C115.776,288.936 115.68,287.88 115.68,286.344 C114.576,287.976 112.704,290.28 107.76,290.28 C101.856,290.28 99.264,287.064 99.264,282.792 C99.264,276.216 105.36,273.816 115.728,274.248 C115.776,271.656 115.44,269.256 112.704,269.256 C111.024,269.256 109.44,270.168 109.488,272.904 L100.848,272.904 C100.896,271.8 100.896,269.736 102.72,267.864 C104.592,265.944 108.336,264.84 112.704,264.84 C114.864,264.84 119.472,265.128 122.016,267.624 C123.552,269.112 124.128,271.368 124.128,273.96 L124.128,285.192 C124.128,286.92 124.176,287.4 124.608,289.8 Z M115.68,278.424 C111.84,278.472 108.144,278.52 108.144,281.976 C108.144,283.752 109.296,285.24 111.456,285.24 C112.416,285.24 114.096,284.856 115.008,282.936 C115.728,281.4 115.728,279.432 115.68,278.424 Z M130.128,289.8 L130.128,270.84 L129.888,265.704 L138.912,265.704 L139.008,269.4 C140.112,267.576 142.032,265.176 147.024,265.176 C155.856,265.176 155.856,271.896 155.856,275.208 L155.856,289.8 L146.832,289.8 L146.832,275.976 C146.832,274.296 146.832,270.888 143.136,270.888 C139.104,270.888 139.104,275.112 139.104,275.976 L139.104,289.8 L130.128,289.8 Z M186.624,274.152 L177.696,274.152 C177.696,271.896 176.832,270.024 174.48,270.024 C171.168,270.024 170.4,273.384 170.4,277.608 C170.4,283.848 172.128,285.288 174.384,285.288 C177.456,285.288 177.648,282.216 177.648,280.392 L186.768,280.392 C186.816,286.488 181.92,290.376 174.624,290.376 C166.944,290.376 161.088,286.296 161.088,277.608 C161.088,268.104 167.76,264.888 174.528,264.888 C177.12,264.888 181.488,265.32 184.272,268.344 C186.336,270.552 186.528,272.76 186.624,274.152 Z M205.776,281.976 L214.704,281.976 C214.704,282.408 214.704,283.32 215.088,284.136 C215.424,284.904 216.192,285.624 217.728,285.624 C219.792,285.624 220.464,284.232 220.464,283.176 C220.464,281.496 219.072,281.016 217.056,280.488 L212.16,279.096 C210.672,278.712 206.304,277.512 206.304,272.568 C206.304,270.168 207.6,268.152 209.184,267.096 C211.296,265.608 214.176,265.032 217.728,265.032 C222.912,265.032 228.336,266.424 228.72,273.144 L220.176,273.144 C220.176,272.424 220.176,271.512 219.84,270.792 C219.456,270.024 218.784,269.496 217.344,269.496 C215.952,269.496 214.656,270.12 214.656,271.608 C214.656,273 215.664,273.528 217.104,273.912 L223.536,275.688 C225.84,276.312 229.2,277.608 229.2,282.312 C229.2,290.472 219.744,290.472 217.632,290.472 C212.736,290.472 205.68,289.752 205.776,281.976 Z M234.288,261.672 L234.288,255.24 L243.504,255.24 L243.504,261.672 L234.288,261.672 Z M234.384,289.8 L234.384,265.704 L243.408,265.704 L243.408,289.8 L234.384,289.8 Z M266.352,289.8 L266.352,255.144 L275.376,255.144 L275.376,289.8 L266.352,289.8 Z M305.904,289.8 L297.264,289.8 C297.072,288.936 296.976,287.88 296.976,286.344 C295.872,287.976 294,290.28 289.056,290.28 C283.152,290.28 280.56,287.064 280.56,282.792 C280.56,276.216 286.656,273.816 297.024,274.248 C297.072,271.656 296.736,269.256 294,269.256 C292.32,269.256 290.736,270.168 290.784,272.904 L282.144,272.904 C282.192,271.8 282.192,269.736 284.016,267.864 C285.888,265.944 289.632,264.84 294,264.84 C296.16,264.84 300.768,265.128 303.312,267.624 C304.848,269.112 305.424,271.368 305.424,273.96 L305.424,285.192 C305.424,286.92 305.472,287.4 305.904,289.8 Z M296.976,278.424 C293.136,278.472 289.44,278.52 289.44,281.976 C289.44,283.752 290.592,285.24 292.752,285.24 C293.712,285.24 295.392,284.856 296.304,282.936 C297.024,281.4 297.024,279.432 296.976,278.424 Z M311.568,261.672 L311.568,255.24 L320.784,255.24 L320.784,261.672 L311.568,261.672 Z M311.664,289.8 L311.664,265.704 L320.688,265.704 L320.688,289.8 L311.664,289.8 Z M325.728,281.976 L334.656,281.976 C334.656,282.408 334.656,283.32 335.04,284.136 C335.376,284.904 336.144,285.624 337.68,285.624 C339.744,285.624 340.416,284.232 340.416,283.176 C340.416,281.496 339.024,281.016 337.008,280.488 L332.112,279.096 C330.624,278.712 326.256,277.512 326.256,272.568 C326.256,270.168 327.552,268.152 329.136,267.096 C331.248,265.608 334.128,265.032 337.68,265.032 C342.864,265.032 348.288,266.424 348.672,273.144 L340.128,273.144 C340.128,272.424 340.128,271.512 339.792,270.792 C339.408,270.024 338.736,269.496 337.296,269.496 C335.904,269.496 334.608,270.12 334.608,271.608 C334.608,273 335.616,273.528 337.056,273.912 L343.488,275.688 C345.792,276.312 349.152,277.608 349.152,282.312 C349.152,290.472 339.696,290.472 337.584,290.472 C332.688,290.472 325.632,289.752 325.728,281.976 Z M352.416,281.976 L361.344,281.976 C361.344,282.408 361.344,283.32 361.728,284.136 C362.064,284.904 362.832,285.624 364.368,285.624 C366.432,285.624 367.104,284.232 367.104,283.176 C367.104,281.496 365.712,281.016 363.696,280.488 L358.8,279.096 C357.312,278.712 352.944,277.512 352.944,272.568 C352.944,270.168 354.24,268.152 355.824,267.096 C357.936,265.608 360.816,265.032 364.368,265.032 C369.552,265.032 374.976,266.424 375.36,273.144 L366.816,273.144 C366.816,272.424 366.816,271.512 366.48,270.792 C366.096,270.024 365.424,269.496 363.984,269.496 C362.592,269.496 361.296,270.12 361.296,271.608 C361.296,273 362.304,273.528 363.744,273.912 L370.176,275.688 C372.48,276.312 375.84,277.608 375.84,282.312 C375.84,290.472 366.384,290.472 364.272,290.472 C359.376,290.472 352.32,289.752 352.416,281.976 Z M405.12,279.576 L387.84,279.576 C387.84,280.872 387.84,285.432 392.448,285.432 C394.848,285.432 396.336,284.184 396.576,281.928 L404.976,281.928 C404.304,287.976 398.64,290.328 392.4,290.328 C384,290.328 379.488,286.104 379.488,278.136 C379.488,270.072 383.424,264.84 392.304,264.84 C399.024,264.84 402.144,267.576 403.776,270.984 C404.832,273.048 405.12,275.352 405.12,279.576 Z M387.936,274.68 L396.624,274.68 C396.528,273.288 396.24,269.64 392.304,269.64 C388.368,269.64 388.032,273.528 387.936,274.68 Z M401.664,254.952 L392.88,261.912 L386.544,261.912 L391.872,254.952 L401.664,254.952 Z M432.624,289.8 L423.456,265.704 L433.152,265.704 L437.952,282.6 L443.088,265.704 L451.584,265.704 L442.464,289.8 L432.624,289.8 Z M455.568,261.672 L455.568,255.24 L464.784,255.24 L464.784,261.672 L455.568,261.672 Z M455.664,289.8 L455.664,265.704 L464.688,265.704 L464.688,289.8 L455.664,289.8 Z M488.256,255.144 L497.28,255.144 L497.28,283.8 C497.28,285.816 497.376,287.784 497.52,289.8 L488.976,289.8 L488.784,286.248 C487.824,287.64 485.952,290.376 480.624,290.376 C472.32,290.376 469.968,283.656 469.968,277.752 C469.968,272.616 471.36,270.216 472.992,268.44 C475.2,266.088 477.888,265.176 480.912,265.176 C484.944,265.176 486.672,266.856 488.256,268.536 L488.256,255.144 Z M483.792,285.048 C487.056,285.048 488.352,281.784 488.352,277.656 C488.352,273.624 487.056,270.456 483.888,270.456 C479.856,270.456 479.328,275.544 479.328,277.8 C479.328,280.104 479.808,285.048 483.792,285.048 Z M527.76,279.576 L510.48,279.576 C510.48,280.872 510.48,285.432 515.088,285.432 C517.488,285.432 518.976,284.184 519.216,281.928 L527.616,281.928 C526.944,287.976 521.28,290.328 515.04,290.328 C506.64,290.328 502.128,286.104 502.128,278.136 C502.128,270.072 506.064,264.84 514.944,264.84 C521.664,264.84 524.784,267.576 526.416,270.984 C527.472,273.048 527.76,275.352 527.76,279.576 Z M510.576,274.68 L519.264,274.68 C519.168,273.288 518.88,269.64 514.944,269.64 C511.008,269.64 510.672,273.528 510.576,274.68 Z M537.696,295.656 L531.456,295.656 C534.912,283.992 535.68,280.296 535.68,274.68 C535.68,269.304 535.008,264.312 531.408,253.656 L537.744,253.656 C540,258.552 543.408,266.136 543.408,274.44 C543.408,282.072 540.144,289.848 537.696,295.656 Z" id="Image-de-fond-(blanc-Copy" fill="#D8D8D9"></path>
        <path d="M276.586667,712.066667 L276.586667,677.410667 L286.474667,677.410667 L286.474667,712.066667 L276.586667,712.066667 Z M292.618667,712.066667 L292.618667,693.442667 C292.618667,692.866667 292.426667,688.690667 292.426667,687.970667 L301.354667,687.970667 L301.450667,691.954667 C303.178667,688.834667 305.962667,687.394667 309.610667,687.394667 C311.002667,687.394667 315.610667,687.634667 317.194667,691.858667 C319.450667,688.114667 323.194667,687.346667 325.690667,687.346667 C330.202667,687.346667 332.362667,689.698667 333.274667,691.090667 C334.570667,693.154667 334.570667,696.082667 334.570667,698.866667 L334.570667,712.066667 L325.546667,712.066667 L325.546667,698.434667 C325.546667,695.986667 325.546667,693.106667 321.946667,693.106667 C320.746667,693.106667 319.402667,693.538667 318.586667,695.122667 C318.298667,695.698667 318.106667,696.466667 318.106667,698.530667 L318.106667,712.066667 L309.082667,712.066667 L309.082667,698.338667 C309.082667,696.178667 309.082667,693.106667 305.482667,693.106667 C302.410667,693.106667 301.642667,695.650667 301.642667,698.338667 L301.642667,712.066667 L292.618667,712.066667 Z M364.570667,712.066667 L355.930667,712.066667 C355.738667,711.202667 355.642667,710.146667 355.642667,708.610667 C354.538667,710.242667 352.666667,712.546667 347.722667,712.546667 C341.818667,712.546667 339.226667,709.330667 339.226667,705.058667 C339.226667,698.482667 345.322667,696.082667 355.690667,696.514667 C355.738667,693.922667 355.402667,691.522667 352.666667,691.522667 C350.986667,691.522667 349.402667,692.434667 349.450667,695.170667 L340.810667,695.170667 C340.858667,694.066667 340.858667,692.002667 342.682667,690.130667 C344.554667,688.210667 348.298667,687.106667 352.666667,687.106667 C354.826667,687.106667 359.434667,687.394667 361.978667,689.890667 C363.514667,691.378667 364.090667,693.634667 364.090667,696.226667 L364.090667,707.458667 C364.090667,709.186667 364.138667,709.666667 364.570667,712.066667 Z M355.642667,700.690667 C351.802667,700.738667 348.106667,700.786667 348.106667,704.242667 C348.106667,706.018667 349.258667,707.506667 351.418667,707.506667 C352.378667,707.506667 354.058667,707.122667 354.970667,705.202667 C355.690667,703.666667 355.690667,701.698667 355.642667,700.690667 Z M387.562667,687.826667 L396.058667,687.826667 L396.058667,710.290667 C396.058667,713.170667 395.482667,716.578667 392.218667,718.882667 C390.154667,720.370667 387.226667,721.570667 382.282667,721.570667 C379.546667,721.570667 374.986667,721.186667 372.250667,718.738667 C370.138667,716.866667 370.090667,714.610667 370.042667,713.362667 L378.538667,713.362667 C378.586667,715.186667 379.882667,716.434667 382.474667,716.434667 C386.986667,716.434667 387.274667,713.170667 387.274667,710.578667 L387.274667,707.410667 C384.826667,711.058667 380.890667,711.298667 379.498667,711.298667 C374.410667,711.298667 368.794667,708.130667 368.794667,699.346667 C368.794667,692.818667 372.250667,687.394667 379.594667,687.394667 C384.250667,687.394667 386.362667,689.554667 387.562667,691.474667 L387.562667,687.826667 Z M387.130667,699.154667 C387.130667,697.906667 387.130667,692.434667 382.762667,692.434667 C379.738667,692.434667 378.106667,695.218667 378.106667,699.250667 C378.106667,701.794667 378.682667,705.970667 382.666667,705.970667 C386.986667,705.970667 387.130667,700.882667 387.130667,699.154667 Z M426.442667,701.842667 L409.162667,701.842667 C409.162667,703.138667 409.162667,707.698667 413.770667,707.698667 C416.170667,707.698667 417.658667,706.450667 417.898667,704.194667 L426.298667,704.194667 C425.626667,710.242667 419.962667,712.594667 413.722667,712.594667 C405.322667,712.594667 400.810667,708.370667 400.810667,700.402667 C400.810667,692.338667 404.746667,687.106667 413.626667,687.106667 C420.346667,687.106667 423.466667,689.842667 425.098667,693.250667 C426.154667,695.314667 426.442667,697.618667 426.442667,701.842667 Z M409.258667,696.946667 L417.946667,696.946667 C417.850667,695.554667 417.562667,691.906667 413.626667,691.906667 C409.690667,691.906667 409.354667,695.794667 409.258667,696.946667 Z M464.266667,677.410667 L473.290667,677.410667 L473.290667,706.066667 C473.290667,708.082667 473.386667,710.050667 473.530667,712.066667 L464.986667,712.066667 L464.794667,708.514667 C463.834667,709.906667 461.962667,712.642667 456.634667,712.642667 C448.330667,712.642667 445.978667,705.922667 445.978667,700.018667 C445.978667,694.882667 447.370667,692.482667 449.002667,690.706667 C451.210667,688.354667 453.898667,687.442667 456.922667,687.442667 C460.954667,687.442667 462.682667,689.122667 464.266667,690.802667 L464.266667,677.410667 Z M459.802667,707.314667 C463.066667,707.314667 464.362667,704.050667 464.362667,699.922667 C464.362667,695.890667 463.066667,692.722667 459.898667,692.722667 C455.866667,692.722667 455.338667,697.810667 455.338667,700.066667 C455.338667,702.370667 455.818667,707.314667 459.802667,707.314667 Z M503.770667,701.842667 L486.490667,701.842667 C486.490667,703.138667 486.490667,707.698667 491.098667,707.698667 C493.498667,707.698667 494.986667,706.450667 495.226667,704.194667 L503.626667,704.194667 C502.954667,710.242667 497.290667,712.594667 491.050667,712.594667 C482.650667,712.594667 478.138667,708.370667 478.138667,700.402667 C478.138667,692.338667 482.074667,687.106667 490.954667,687.106667 C497.674667,687.106667 500.794667,689.842667 502.426667,693.250667 C503.482667,695.314667 503.770667,697.618667 503.770667,701.842667 Z M486.586667,696.946667 L495.274667,696.946667 C495.178667,695.554667 494.890667,691.906667 490.954667,691.906667 C487.018667,691.906667 486.682667,695.794667 486.586667,696.946667 Z M542.170667,677.554667 L542.170667,683.362667 C541.786667,683.266667 540.874667,683.074667 539.674667,683.074667 C535.978667,683.074667 536.074667,686.050667 536.122667,688.066667 L541.930667,688.066667 L541.930667,693.922667 L536.122667,693.922667 L536.122667,712.066667 L527.290667,712.066667 L527.290667,693.922667 L522.634667,693.922667 L522.634667,688.066667 L527.434667,688.066667 C527.290667,682.306667 527.386667,677.266667 536.842667,677.266667 C539.290667,677.266667 541.162667,677.458667 542.170667,677.554667 Z M544.810667,699.922667 C544.810667,692.530667 549.370667,687.154667 558.922667,687.154667 C566.746667,687.154667 572.842667,691.090667 572.842667,699.634667 C572.842667,703.138667 571.834667,706.690667 569.338667,709.186667 C567.322667,711.154667 564.346667,712.642667 559.402667,712.642667 C554.074667,712.642667 550.618667,711.346667 548.266667,709.090667 C545.482667,706.450667 544.810667,702.850667 544.810667,699.922667 Z M554.170667,699.970667 C554.170667,701.554667 554.314667,703.906667 555.322667,705.682667 C556.378667,707.506667 558.010667,707.602667 558.826667,707.602667 C562.762667,707.602667 563.530667,703.330667 563.530667,699.970667 C563.530667,695.794667 562.522667,692.290667 558.922667,692.290667 C554.938667,692.290667 554.170667,696.370667 554.170667,699.970667 Z M578.074667,712.066667 L578.074667,693.106667 L577.834667,687.970667 L586.858667,687.970667 L586.954667,691.666667 C588.058667,689.842667 589.978667,687.442667 594.970667,687.442667 C603.802667,687.442667 603.802667,694.162667 603.802667,697.474667 L603.802667,712.066667 L594.778667,712.066667 L594.778667,698.242667 C594.778667,696.562667 594.778667,693.154667 591.082667,693.154667 C587.050667,693.154667 587.050667,697.378667 587.050667,698.242667 L587.050667,712.066667 L578.074667,712.066667 Z M626.938667,677.410667 L635.962667,677.410667 L635.962667,706.066667 C635.962667,708.082667 636.058667,710.050667 636.202667,712.066667 L627.658667,712.066667 L627.466667,708.514667 C626.506667,709.906667 624.634667,712.642667 619.306667,712.642667 C611.002667,712.642667 608.650667,705.922667 608.650667,700.018667 C608.650667,694.882667 610.042667,692.482667 611.674667,690.706667 C613.882667,688.354667 616.570667,687.442667 619.594667,687.442667 C623.626667,687.442667 625.354667,689.122667 626.938667,690.802667 L626.938667,677.410667 Z M622.474667,707.314667 C625.738667,707.314667 627.034667,704.050667 627.034667,699.922667 C627.034667,695.890667 625.738667,692.722667 622.570667,692.722667 C618.538667,692.722667 618.010667,697.810667 618.010667,700.066667 C618.010667,702.370667 618.490667,707.314667 622.474667,707.314667 Z M208.378667,723.922667 L214.618667,723.922667 C211.162667,735.586667 210.394667,739.234667 210.394667,744.850667 C210.394667,750.226667 211.066667,755.218667 214.666667,765.922667 L208.330667,765.922667 C206.074667,760.978667 202.666667,753.394667 202.666667,745.090667 C202.666667,737.458667 205.930667,729.682667 208.378667,723.922667 Z M219.322667,725.410667 L228.394667,725.410667 L228.394667,738.514667 C230.890667,735.394667 235.162667,735.346667 236.026667,735.346667 C240.634667,735.346667 243.418667,737.794667 244.954667,740.386667 C246.250667,742.642667 246.490667,745.282667 246.490667,747.874667 C246.490667,752.578667 245.386667,755.218667 243.370667,757.378667 C240.682667,760.306667 237.610667,760.594667 235.786667,760.594667 C234.202667,760.594667 230.746667,760.450667 227.770667,756.514667 L227.482667,760.066667 L219.034667,760.066667 C219.274667,757.330667 219.322667,754.210667 219.322667,754.066667 L219.322667,725.410667 Z M228.106667,747.874667 C228.106667,749.458667 228.394667,755.170667 232.666667,755.170667 C237.178667,755.170667 237.178667,749.410667 237.178667,747.826667 C237.178667,745.378667 236.890667,740.578667 232.858667,740.578667 C228.394667,740.578667 228.106667,746.098667 228.106667,747.874667 Z M251.722667,760.066667 L251.722667,725.410667 L260.746667,725.410667 L260.746667,760.066667 L251.722667,760.066667 Z M291.274667,760.066667 L282.634667,760.066667 C282.442667,759.202667 282.346667,758.146667 282.346667,756.610667 C281.242667,758.242667 279.370667,760.546667 274.426667,760.546667 C268.522667,760.546667 265.930667,757.330667 265.930667,753.058667 C265.930667,746.482667 272.026667,744.082667 282.394667,744.514667 C282.442667,741.922667 282.106667,739.522667 279.370667,739.522667 C277.690667,739.522667 276.106667,740.434667 276.154667,743.170667 L267.514667,743.170667 C267.562667,742.066667 267.562667,740.002667 269.386667,738.130667 C271.258667,736.210667 275.002667,735.106667 279.370667,735.106667 C281.530667,735.106667 286.138667,735.394667 288.682667,737.890667 C290.218667,739.378667 290.794667,741.634667 290.794667,744.226667 L290.794667,755.458667 C290.794667,757.186667 290.842667,757.666667 291.274667,760.066667 Z M282.346667,748.690667 C278.506667,748.738667 274.810667,748.786667 274.810667,752.242667 C274.810667,754.018667 275.962667,755.506667 278.122667,755.506667 C279.082667,755.506667 280.762667,755.122667 281.674667,753.202667 C282.394667,751.666667 282.394667,749.698667 282.346667,748.690667 Z M296.794667,760.066667 L296.794667,741.106667 L296.554667,735.970667 L305.578667,735.970667 L305.674667,739.666667 C306.778667,737.842667 308.698667,735.442667 313.690667,735.442667 C322.522667,735.442667 322.522667,742.162667 322.522667,745.474667 L322.522667,760.066667 L313.498667,760.066667 L313.498667,746.242667 C313.498667,744.562667 313.498667,741.154667 309.802667,741.154667 C305.770667,741.154667 305.770667,745.378667 305.770667,746.242667 L305.770667,760.066667 L296.794667,760.066667 Z M353.290667,744.418667 L344.362667,744.418667 C344.362667,742.162667 343.498667,740.290667 341.146667,740.290667 C337.834667,740.290667 337.066667,743.650667 337.066667,747.874667 C337.066667,754.114667 338.794667,755.554667 341.050667,755.554667 C344.122667,755.554667 344.314667,752.482667 344.314667,750.658667 L353.434667,750.658667 C353.482667,756.754667 348.586667,760.642667 341.290667,760.642667 C333.610667,760.642667 327.754667,756.562667 327.754667,747.874667 C327.754667,738.370667 334.426667,735.154667 341.194667,735.154667 C343.786667,735.154667 348.154667,735.586667 350.938667,738.610667 C353.002667,740.818667 353.194667,743.026667 353.290667,744.418667 Z M372.442667,752.242667 L381.370667,752.242667 C381.370667,752.674667 381.370667,753.586667 381.754667,754.402667 C382.090667,755.170667 382.858667,755.890667 384.394667,755.890667 C386.458667,755.890667 387.130667,754.498667 387.130667,753.442667 C387.130667,751.762667 385.738667,751.282667 383.722667,750.754667 L378.826667,749.362667 C377.338667,748.978667 372.970667,747.778667 372.970667,742.834667 C372.970667,740.434667 374.266667,738.418667 375.850667,737.362667 C377.962667,735.874667 380.842667,735.298667 384.394667,735.298667 C389.578667,735.298667 395.002667,736.690667 395.386667,743.410667 L386.842667,743.410667 C386.842667,742.690667 386.842667,741.778667 386.506667,741.058667 C386.122667,740.290667 385.450667,739.762667 384.010667,739.762667 C382.618667,739.762667 381.322667,740.386667 381.322667,741.874667 C381.322667,743.266667 382.330667,743.794667 383.770667,744.178667 L390.202667,745.954667 C392.506667,746.578667 395.866667,747.874667 395.866667,752.578667 C395.866667,760.738667 386.410667,760.738667 384.298667,760.738667 C379.402667,760.738667 372.346667,760.018667 372.442667,752.242667 Z M400.954667,731.938667 L400.954667,725.506667 L410.170667,725.506667 L410.170667,731.938667 L400.954667,731.938667 Z M401.050667,760.066667 L401.050667,735.970667 L410.074667,735.970667 L410.074667,760.066667 L401.050667,760.066667 Z M433.018667,760.066667 L433.018667,725.410667 L442.042667,725.410667 L442.042667,760.066667 L433.018667,760.066667 Z M472.570667,760.066667 L463.930667,760.066667 C463.738667,759.202667 463.642667,758.146667 463.642667,756.610667 C462.538667,758.242667 460.666667,760.546667 455.722667,760.546667 C449.818667,760.546667 447.226667,757.330667 447.226667,753.058667 C447.226667,746.482667 453.322667,744.082667 463.690667,744.514667 C463.738667,741.922667 463.402667,739.522667 460.666667,739.522667 C458.986667,739.522667 457.402667,740.434667 457.450667,743.170667 L448.810667,743.170667 C448.858667,742.066667 448.858667,740.002667 450.682667,738.130667 C452.554667,736.210667 456.298667,735.106667 460.666667,735.106667 C462.826667,735.106667 467.434667,735.394667 469.978667,737.890667 C471.514667,739.378667 472.090667,741.634667 472.090667,744.226667 L472.090667,755.458667 C472.090667,757.186667 472.138667,757.666667 472.570667,760.066667 Z M463.642667,748.690667 C459.802667,748.738667 456.106667,748.786667 456.106667,752.242667 C456.106667,754.018667 457.258667,755.506667 459.418667,755.506667 C460.378667,755.506667 462.058667,755.122667 462.970667,753.202667 C463.690667,751.666667 463.690667,749.698667 463.642667,748.690667 Z M478.234667,731.938667 L478.234667,725.506667 L487.450667,725.506667 L487.450667,731.938667 L478.234667,731.938667 Z M478.330667,760.066667 L478.330667,735.970667 L487.354667,735.970667 L487.354667,760.066667 L478.330667,760.066667 Z M492.394667,752.242667 L501.322667,752.242667 C501.322667,752.674667 501.322667,753.586667 501.706667,754.402667 C502.042667,755.170667 502.810667,755.890667 504.346667,755.890667 C506.410667,755.890667 507.082667,754.498667 507.082667,753.442667 C507.082667,751.762667 505.690667,751.282667 503.674667,750.754667 L498.778667,749.362667 C497.290667,748.978667 492.922667,747.778667 492.922667,742.834667 C492.922667,740.434667 494.218667,738.418667 495.802667,737.362667 C497.914667,735.874667 500.794667,735.298667 504.346667,735.298667 C509.530667,735.298667 514.954667,736.690667 515.338667,743.410667 L506.794667,743.410667 C506.794667,742.690667 506.794667,741.778667 506.458667,741.058667 C506.074667,740.290667 505.402667,739.762667 503.962667,739.762667 C502.570667,739.762667 501.274667,740.386667 501.274667,741.874667 C501.274667,743.266667 502.282667,743.794667 503.722667,744.178667 L510.154667,745.954667 C512.458667,746.578667 515.818667,747.874667 515.818667,752.578667 C515.818667,760.738667 506.362667,760.738667 504.250667,760.738667 C499.354667,760.738667 492.298667,760.018667 492.394667,752.242667 Z M519.082667,752.242667 L528.010667,752.242667 C528.010667,752.674667 528.010667,753.586667 528.394667,754.402667 C528.730667,755.170667 529.498667,755.890667 531.034667,755.890667 C533.098667,755.890667 533.770667,754.498667 533.770667,753.442667 C533.770667,751.762667 532.378667,751.282667 530.362667,750.754667 L525.466667,749.362667 C523.978667,748.978667 519.610667,747.778667 519.610667,742.834667 C519.610667,740.434667 520.906667,738.418667 522.490667,737.362667 C524.602667,735.874667 527.482667,735.298667 531.034667,735.298667 C536.218667,735.298667 541.642667,736.690667 542.026667,743.410667 L533.482667,743.410667 C533.482667,742.690667 533.482667,741.778667 533.146667,741.058667 C532.762667,740.290667 532.090667,739.762667 530.650667,739.762667 C529.258667,739.762667 527.962667,740.386667 527.962667,741.874667 C527.962667,743.266667 528.970667,743.794667 530.410667,744.178667 L536.842667,745.954667 C539.146667,746.578667 542.506667,747.874667 542.506667,752.578667 C542.506667,760.738667 533.050667,760.738667 530.938667,760.738667 C526.042667,760.738667 518.986667,760.018667 519.082667,752.242667 Z M571.786667,749.842667 L554.506667,749.842667 C554.506667,751.138667 554.506667,755.698667 559.114667,755.698667 C561.514667,755.698667 563.002667,754.450667 563.242667,752.194667 L571.642667,752.194667 C570.970667,758.242667 565.306667,760.594667 559.066667,760.594667 C550.666667,760.594667 546.154667,756.370667 546.154667,748.402667 C546.154667,740.338667 550.090667,735.106667 558.970667,735.106667 C565.690667,735.106667 568.810667,737.842667 570.442667,741.250667 C571.498667,743.314667 571.786667,745.618667 571.786667,749.842667 Z M554.602667,744.946667 L563.290667,744.946667 C563.194667,743.554667 562.906667,739.906667 558.970667,739.906667 C555.034667,739.906667 554.698667,743.794667 554.602667,744.946667 Z M568.330667,725.218667 L559.546667,732.178667 L553.210667,732.178667 L558.538667,725.218667 L568.330667,725.218667 Z M599.290667,760.066667 L590.122667,735.970667 L599.818667,735.970667 L604.618667,752.866667 L609.754667,735.970667 L618.250667,735.970667 L609.130667,760.066667 L599.290667,760.066667 Z M622.234667,731.938667 L622.234667,725.506667 L631.450667,725.506667 L631.450667,731.938667 L622.234667,731.938667 Z M622.330667,760.066667 L622.330667,735.970667 L631.354667,735.970667 L631.354667,760.066667 L622.330667,760.066667 Z M654.922667,725.410667 L663.946667,725.410667 L663.946667,754.066667 C663.946667,756.082667 664.042667,758.050667 664.186667,760.066667 L655.642667,760.066667 L655.450667,756.514667 C654.490667,757.906667 652.618667,760.642667 647.290667,760.642667 C638.986667,760.642667 636.634667,753.922667 636.634667,748.018667 C636.634667,742.882667 638.026667,740.482667 639.658667,738.706667 C641.866667,736.354667 644.554667,735.442667 647.578667,735.442667 C651.610667,735.442667 653.338667,737.122667 654.922667,738.802667 L654.922667,725.410667 Z M650.458667,755.314667 C653.722667,755.314667 655.018667,752.050667 655.018667,747.922667 C655.018667,743.890667 653.722667,740.722667 650.554667,740.722667 C646.522667,740.722667 645.994667,745.810667 645.994667,748.066667 C645.994667,750.370667 646.474667,755.314667 650.458667,755.314667 Z M694.426667,749.842667 L677.146667,749.842667 C677.146667,751.138667 677.146667,755.698667 681.754667,755.698667 C684.154667,755.698667 685.642667,754.450667 685.882667,752.194667 L694.282667,752.194667 C693.610667,758.242667 687.946667,760.594667 681.706667,760.594667 C673.306667,760.594667 668.794667,756.370667 668.794667,748.402667 C668.794667,740.338667 672.730667,735.106667 681.610667,735.106667 C688.330667,735.106667 691.450667,737.842667 693.082667,741.250667 C694.138667,743.314667 694.426667,745.618667 694.426667,749.842667 Z M677.242667,744.946667 L685.930667,744.946667 C685.834667,743.554667 685.546667,739.906667 681.610667,739.906667 C677.674667,739.906667 677.338667,743.794667 677.242667,744.946667 Z M704.362667,765.922667 L698.122667,765.922667 C701.578667,754.258667 702.346667,750.562667 702.346667,744.946667 C702.346667,739.570667 701.674667,734.578667 698.074667,723.922667 L704.410667,723.922667 C706.666667,728.818667 710.074667,736.402667 710.074667,744.706667 C710.074667,752.338667 706.810667,760.114667 704.362667,765.922667 Z" id="Image-de-fond-(blanc-Copy-2" fill="#D8D8D9"></path>
        <path d="M443.253333,1181.93333 L443.253333,1147.27733 L453.141333,1147.27733 L453.141333,1181.93333 L443.253333,1181.93333 Z M459.285333,1181.93333 L459.285333,1163.30933 C459.285333,1162.73333 459.093333,1158.55733 459.093333,1157.83733 L468.021333,1157.83733 L468.117333,1161.82133 C469.845333,1158.70133 472.629333,1157.26133 476.277333,1157.26133 C477.669333,1157.26133 482.277333,1157.50133 483.861333,1161.72533 C486.117333,1157.98133 489.861333,1157.21333 492.357333,1157.21333 C496.869333,1157.21333 499.029333,1159.56533 499.941333,1160.95733 C501.237333,1163.02133 501.237333,1165.94933 501.237333,1168.73333 L501.237333,1181.93333 L492.213333,1181.93333 L492.213333,1168.30133 C492.213333,1165.85333 492.213333,1162.97333 488.613333,1162.97333 C487.413333,1162.97333 486.069333,1163.40533 485.253333,1164.98933 C484.965333,1165.56533 484.773333,1166.33333 484.773333,1168.39733 L484.773333,1181.93333 L475.749333,1181.93333 L475.749333,1168.20533 C475.749333,1166.04533 475.749333,1162.97333 472.149333,1162.97333 C469.077333,1162.97333 468.309333,1165.51733 468.309333,1168.20533 L468.309333,1181.93333 L459.285333,1181.93333 Z M531.237333,1181.93333 L522.597333,1181.93333 C522.405333,1181.06933 522.309333,1180.01333 522.309333,1178.47733 C521.205333,1180.10933 519.333333,1182.41333 514.389333,1182.41333 C508.485333,1182.41333 505.893333,1179.19733 505.893333,1174.92533 C505.893333,1168.34933 511.989333,1165.94933 522.357333,1166.38133 C522.405333,1163.78933 522.069333,1161.38933 519.333333,1161.38933 C517.653333,1161.38933 516.069333,1162.30133 516.117333,1165.03733 L507.477333,1165.03733 C507.525333,1163.93333 507.525333,1161.86933 509.349333,1159.99733 C511.221333,1158.07733 514.965333,1156.97333 519.333333,1156.97333 C521.493333,1156.97333 526.101333,1157.26133 528.645333,1159.75733 C530.181333,1161.24533 530.757333,1163.50133 530.757333,1166.09333 L530.757333,1177.32533 C530.757333,1179.05333 530.805333,1179.53333 531.237333,1181.93333 Z M522.309333,1170.55733 C518.469333,1170.60533 514.773333,1170.65333 514.773333,1174.10933 C514.773333,1175.88533 515.925333,1177.37333 518.085333,1177.37333 C519.045333,1177.37333 520.725333,1176.98933 521.637333,1175.06933 C522.357333,1173.53333 522.357333,1171.56533 522.309333,1170.55733 Z M554.229333,1157.69333 L562.725333,1157.69333 L562.725333,1180.15733 C562.725333,1183.03733 562.149333,1186.44533 558.885333,1188.74933 C556.821333,1190.23733 553.893333,1191.43733 548.949333,1191.43733 C546.213333,1191.43733 541.653333,1191.05333 538.917333,1188.60533 C536.805333,1186.73333 536.757333,1184.47733 536.709333,1183.22933 L545.205333,1183.22933 C545.253333,1185.05333 546.549333,1186.30133 549.141333,1186.30133 C553.653333,1186.30133 553.941333,1183.03733 553.941333,1180.44533 L553.941333,1177.27733 C551.493333,1180.92533 547.557333,1181.16533 546.165333,1181.16533 C541.077333,1181.16533 535.461333,1177.99733 535.461333,1169.21333 C535.461333,1162.68533 538.917333,1157.26133 546.261333,1157.26133 C550.917333,1157.26133 553.029333,1159.42133 554.229333,1161.34133 L554.229333,1157.69333 Z M553.797333,1169.02133 C553.797333,1167.77333 553.797333,1162.30133 549.429333,1162.30133 C546.405333,1162.30133 544.773333,1165.08533 544.773333,1169.11733 C544.773333,1171.66133 545.349333,1175.83733 549.333333,1175.83733 C553.653333,1175.83733 553.797333,1170.74933 553.797333,1169.02133 Z M593.109333,1171.70933 L575.829333,1171.70933 C575.829333,1173.00533 575.829333,1177.56533 580.437333,1177.56533 C582.837333,1177.56533 584.325333,1176.31733 584.565333,1174.06133 L592.965333,1174.06133 C592.293333,1180.10933 586.629333,1182.46133 580.389333,1182.46133 C571.989333,1182.46133 567.477333,1178.23733 567.477333,1170.26933 C567.477333,1162.20533 571.413333,1156.97333 580.293333,1156.97333 C587.013333,1156.97333 590.133333,1159.70933 591.765333,1163.11733 C592.821333,1165.18133 593.109333,1167.48533 593.109333,1171.70933 Z M575.925333,1166.81333 L584.613333,1166.81333 C584.517333,1165.42133 584.229333,1161.77333 580.293333,1161.77333 C576.357333,1161.77333 576.021333,1165.66133 575.925333,1166.81333 Z M630.933333,1147.27733 L639.957333,1147.27733 L639.957333,1175.93333 C639.957333,1177.94933 640.053333,1179.91733 640.197333,1181.93333 L631.653333,1181.93333 L631.461333,1178.38133 C630.501333,1179.77333 628.629333,1182.50933 623.301333,1182.50933 C614.997333,1182.50933 612.645333,1175.78933 612.645333,1169.88533 C612.645333,1164.74933 614.037333,1162.34933 615.669333,1160.57333 C617.877333,1158.22133 620.565333,1157.30933 623.589333,1157.30933 C627.621333,1157.30933 629.349333,1158.98933 630.933333,1160.66933 L630.933333,1147.27733 Z M626.469333,1177.18133 C629.733333,1177.18133 631.029333,1173.91733 631.029333,1169.78933 C631.029333,1165.75733 629.733333,1162.58933 626.565333,1162.58933 C622.533333,1162.58933 622.005333,1167.67733 622.005333,1169.93333 C622.005333,1172.23733 622.485333,1177.18133 626.469333,1177.18133 Z M670.437333,1171.70933 L653.157333,1171.70933 C653.157333,1173.00533 653.157333,1177.56533 657.765333,1177.56533 C660.165333,1177.56533 661.653333,1176.31733 661.893333,1174.06133 L670.293333,1174.06133 C669.621333,1180.10933 663.957333,1182.46133 657.717333,1182.46133 C649.317333,1182.46133 644.805333,1178.23733 644.805333,1170.26933 C644.805333,1162.20533 648.741333,1156.97333 657.621333,1156.97333 C664.341333,1156.97333 667.461333,1159.70933 669.093333,1163.11733 C670.149333,1165.18133 670.437333,1167.48533 670.437333,1171.70933 Z M653.253333,1166.81333 L661.941333,1166.81333 C661.845333,1165.42133 661.557333,1161.77333 657.621333,1161.77333 C653.685333,1161.77333 653.349333,1165.66133 653.253333,1166.81333 Z M708.837333,1147.42133 L708.837333,1153.22933 C708.453333,1153.13333 707.541333,1152.94133 706.341333,1152.94133 C702.645333,1152.94133 702.741333,1155.91733 702.789333,1157.93333 L708.597333,1157.93333 L708.597333,1163.78933 L702.789333,1163.78933 L702.789333,1181.93333 L693.957333,1181.93333 L693.957333,1163.78933 L689.301333,1163.78933 L689.301333,1157.93333 L694.101333,1157.93333 C693.957333,1152.17333 694.053333,1147.13333 703.509333,1147.13333 C705.957333,1147.13333 707.829333,1147.32533 708.837333,1147.42133 Z M711.477333,1169.78933 C711.477333,1162.39733 716.037333,1157.02133 725.589333,1157.02133 C733.413333,1157.02133 739.509333,1160.95733 739.509333,1169.50133 C739.509333,1173.00533 738.501333,1176.55733 736.005333,1179.05333 C733.989333,1181.02133 731.013333,1182.50933 726.069333,1182.50933 C720.741333,1182.50933 717.285333,1181.21333 714.933333,1178.95733 C712.149333,1176.31733 711.477333,1172.71733 711.477333,1169.78933 Z M720.837333,1169.83733 C720.837333,1171.42133 720.981333,1173.77333 721.989333,1175.54933 C723.045333,1177.37333 724.677333,1177.46933 725.493333,1177.46933 C729.429333,1177.46933 730.197333,1173.19733 730.197333,1169.83733 C730.197333,1165.66133 729.189333,1162.15733 725.589333,1162.15733 C721.605333,1162.15733 720.837333,1166.23733 720.837333,1169.83733 Z M744.741333,1181.93333 L744.741333,1162.97333 L744.501333,1157.83733 L753.525333,1157.83733 L753.621333,1161.53333 C754.725333,1159.70933 756.645333,1157.30933 761.637333,1157.30933 C770.469333,1157.30933 770.469333,1164.02933 770.469333,1167.34133 L770.469333,1181.93333 L761.445333,1181.93333 L761.445333,1168.10933 C761.445333,1166.42933 761.445333,1163.02133 757.749333,1163.02133 C753.717333,1163.02133 753.717333,1167.24533 753.717333,1168.10933 L753.717333,1181.93333 L744.741333,1181.93333 Z M793.605333,1147.27733 L802.629333,1147.27733 L802.629333,1175.93333 C802.629333,1177.94933 802.725333,1179.91733 802.869333,1181.93333 L794.325333,1181.93333 L794.133333,1178.38133 C793.173333,1179.77333 791.301333,1182.50933 785.973333,1182.50933 C777.669333,1182.50933 775.317333,1175.78933 775.317333,1169.88533 C775.317333,1164.74933 776.709333,1162.34933 778.341333,1160.57333 C780.549333,1158.22133 783.237333,1157.30933 786.261333,1157.30933 C790.293333,1157.30933 792.021333,1158.98933 793.605333,1160.66933 L793.605333,1147.27733 Z M789.141333,1177.18133 C792.405333,1177.18133 793.701333,1173.91733 793.701333,1169.78933 C793.701333,1165.75733 792.405333,1162.58933 789.237333,1162.58933 C785.205333,1162.58933 784.677333,1167.67733 784.677333,1169.93333 C784.677333,1172.23733 785.157333,1177.18133 789.141333,1177.18133 Z M375.045333,1193.78933 L381.285333,1193.78933 C377.829333,1205.45333 377.061333,1209.10133 377.061333,1214.71733 C377.061333,1220.09333 377.733333,1225.08533 381.333333,1235.78933 L374.997333,1235.78933 C372.741333,1230.84533 369.333333,1223.26133 369.333333,1214.95733 C369.333333,1207.32533 372.597333,1199.54933 375.045333,1193.78933 Z M385.989333,1195.27733 L395.061333,1195.27733 L395.061333,1208.38133 C397.557333,1205.26133 401.829333,1205.21333 402.693333,1205.21333 C407.301333,1205.21333 410.085333,1207.66133 411.621333,1210.25333 C412.917333,1212.50933 413.157333,1215.14933 413.157333,1217.74133 C413.157333,1222.44533 412.053333,1225.08533 410.037333,1227.24533 C407.349333,1230.17333 404.277333,1230.46133 402.453333,1230.46133 C400.869333,1230.46133 397.413333,1230.31733 394.437333,1226.38133 L394.149333,1229.93333 L385.701333,1229.93333 C385.941333,1227.19733 385.989333,1224.07733 385.989333,1223.93333 L385.989333,1195.27733 Z M394.773333,1217.74133 C394.773333,1219.32533 395.061333,1225.03733 399.333333,1225.03733 C403.845333,1225.03733 403.845333,1219.27733 403.845333,1217.69333 C403.845333,1215.24533 403.557333,1210.44533 399.525333,1210.44533 C395.061333,1210.44533 394.773333,1215.96533 394.773333,1217.74133 Z M418.389333,1229.93333 L418.389333,1195.27733 L427.413333,1195.27733 L427.413333,1229.93333 L418.389333,1229.93333 Z M457.941333,1229.93333 L449.301333,1229.93333 C449.109333,1229.06933 449.013333,1228.01333 449.013333,1226.47733 C447.909333,1228.10933 446.037333,1230.41333 441.093333,1230.41333 C435.189333,1230.41333 432.597333,1227.19733 432.597333,1222.92533 C432.597333,1216.34933 438.693333,1213.94933 449.061333,1214.38133 C449.109333,1211.78933 448.773333,1209.38933 446.037333,1209.38933 C444.357333,1209.38933 442.773333,1210.30133 442.821333,1213.03733 L434.181333,1213.03733 C434.229333,1211.93333 434.229333,1209.86933 436.053333,1207.99733 C437.925333,1206.07733 441.669333,1204.97333 446.037333,1204.97333 C448.197333,1204.97333 452.805333,1205.26133 455.349333,1207.75733 C456.885333,1209.24533 457.461333,1211.50133 457.461333,1214.09333 L457.461333,1225.32533 C457.461333,1227.05333 457.509333,1227.53333 457.941333,1229.93333 Z M449.013333,1218.55733 C445.173333,1218.60533 441.477333,1218.65333 441.477333,1222.10933 C441.477333,1223.88533 442.629333,1225.37333 444.789333,1225.37333 C445.749333,1225.37333 447.429333,1224.98933 448.341333,1223.06933 C449.061333,1221.53333 449.061333,1219.56533 449.013333,1218.55733 Z M463.461333,1229.93333 L463.461333,1210.97333 L463.221333,1205.83733 L472.245333,1205.83733 L472.341333,1209.53333 C473.445333,1207.70933 475.365333,1205.30933 480.357333,1205.30933 C489.189333,1205.30933 489.189333,1212.02933 489.189333,1215.34133 L489.189333,1229.93333 L480.165333,1229.93333 L480.165333,1216.10933 C480.165333,1214.42933 480.165333,1211.02133 476.469333,1211.02133 C472.437333,1211.02133 472.437333,1215.24533 472.437333,1216.10933 L472.437333,1229.93333 L463.461333,1229.93333 Z M519.957333,1214.28533 L511.029333,1214.28533 C511.029333,1212.02933 510.165333,1210.15733 507.813333,1210.15733 C504.501333,1210.15733 503.733333,1213.51733 503.733333,1217.74133 C503.733333,1223.98133 505.461333,1225.42133 507.717333,1225.42133 C510.789333,1225.42133 510.981333,1222.34933 510.981333,1220.52533 L520.101333,1220.52533 C520.149333,1226.62133 515.253333,1230.50933 507.957333,1230.50933 C500.277333,1230.50933 494.421333,1226.42933 494.421333,1217.74133 C494.421333,1208.23733 501.093333,1205.02133 507.861333,1205.02133 C510.453333,1205.02133 514.821333,1205.45333 517.605333,1208.47733 C519.669333,1210.68533 519.861333,1212.89333 519.957333,1214.28533 Z M539.109333,1222.10933 L548.037333,1222.10933 C548.037333,1222.54133 548.037333,1223.45333 548.421333,1224.26933 C548.757333,1225.03733 549.525333,1225.75733 551.061333,1225.75733 C553.125333,1225.75733 553.797333,1224.36533 553.797333,1223.30933 C553.797333,1221.62933 552.405333,1221.14933 550.389333,1220.62133 L545.493333,1219.22933 C544.005333,1218.84533 539.637333,1217.64533 539.637333,1212.70133 C539.637333,1210.30133 540.933333,1208.28533 542.517333,1207.22933 C544.629333,1205.74133 547.509333,1205.16533 551.061333,1205.16533 C556.245333,1205.16533 561.669333,1206.55733 562.053333,1213.27733 L553.509333,1213.27733 C553.509333,1212.55733 553.509333,1211.64533 553.173333,1210.92533 C552.789333,1210.15733 552.117333,1209.62933 550.677333,1209.62933 C549.285333,1209.62933 547.989333,1210.25333 547.989333,1211.74133 C547.989333,1213.13333 548.997333,1213.66133 550.437333,1214.04533 L556.869333,1215.82133 C559.173333,1216.44533 562.533333,1217.74133 562.533333,1222.44533 C562.533333,1230.60533 553.077333,1230.60533 550.965333,1230.60533 C546.069333,1230.60533 539.013333,1229.88533 539.109333,1222.10933 Z M567.621333,1201.80533 L567.621333,1195.37333 L576.837333,1195.37333 L576.837333,1201.80533 L567.621333,1201.80533 Z M567.717333,1229.93333 L567.717333,1205.83733 L576.741333,1205.83733 L576.741333,1229.93333 L567.717333,1229.93333 Z M599.685333,1229.93333 L599.685333,1195.27733 L608.709333,1195.27733 L608.709333,1229.93333 L599.685333,1229.93333 Z M639.237333,1229.93333 L630.597333,1229.93333 C630.405333,1229.06933 630.309333,1228.01333 630.309333,1226.47733 C629.205333,1228.10933 627.333333,1230.41333 622.389333,1230.41333 C616.485333,1230.41333 613.893333,1227.19733 613.893333,1222.92533 C613.893333,1216.34933 619.989333,1213.94933 630.357333,1214.38133 C630.405333,1211.78933 630.069333,1209.38933 627.333333,1209.38933 C625.653333,1209.38933 624.069333,1210.30133 624.117333,1213.03733 L615.477333,1213.03733 C615.525333,1211.93333 615.525333,1209.86933 617.349333,1207.99733 C619.221333,1206.07733 622.965333,1204.97333 627.333333,1204.97333 C629.493333,1204.97333 634.101333,1205.26133 636.645333,1207.75733 C638.181333,1209.24533 638.757333,1211.50133 638.757333,1214.09333 L638.757333,1225.32533 C638.757333,1227.05333 638.805333,1227.53333 639.237333,1229.93333 Z M630.309333,1218.55733 C626.469333,1218.60533 622.773333,1218.65333 622.773333,1222.10933 C622.773333,1223.88533 623.925333,1225.37333 626.085333,1225.37333 C627.045333,1225.37333 628.725333,1224.98933 629.637333,1223.06933 C630.357333,1221.53333 630.357333,1219.56533 630.309333,1218.55733 Z M644.901333,1201.80533 L644.901333,1195.37333 L654.117333,1195.37333 L654.117333,1201.80533 L644.901333,1201.80533 Z M644.997333,1229.93333 L644.997333,1205.83733 L654.021333,1205.83733 L654.021333,1229.93333 L644.997333,1229.93333 Z M659.061333,1222.10933 L667.989333,1222.10933 C667.989333,1222.54133 667.989333,1223.45333 668.373333,1224.26933 C668.709333,1225.03733 669.477333,1225.75733 671.013333,1225.75733 C673.077333,1225.75733 673.749333,1224.36533 673.749333,1223.30933 C673.749333,1221.62933 672.357333,1221.14933 670.341333,1220.62133 L665.445333,1219.22933 C663.957333,1218.84533 659.589333,1217.64533 659.589333,1212.70133 C659.589333,1210.30133 660.885333,1208.28533 662.469333,1207.22933 C664.581333,1205.74133 667.461333,1205.16533 671.013333,1205.16533 C676.197333,1205.16533 681.621333,1206.55733 682.005333,1213.27733 L673.461333,1213.27733 C673.461333,1212.55733 673.461333,1211.64533 673.125333,1210.92533 C672.741333,1210.15733 672.069333,1209.62933 670.629333,1209.62933 C669.237333,1209.62933 667.941333,1210.25333 667.941333,1211.74133 C667.941333,1213.13333 668.949333,1213.66133 670.389333,1214.04533 L676.821333,1215.82133 C679.125333,1216.44533 682.485333,1217.74133 682.485333,1222.44533 C682.485333,1230.60533 673.029333,1230.60533 670.917333,1230.60533 C666.021333,1230.60533 658.965333,1229.88533 659.061333,1222.10933 Z M685.749333,1222.10933 L694.677333,1222.10933 C694.677333,1222.54133 694.677333,1223.45333 695.061333,1224.26933 C695.397333,1225.03733 696.165333,1225.75733 697.701333,1225.75733 C699.765333,1225.75733 700.437333,1224.36533 700.437333,1223.30933 C700.437333,1221.62933 699.045333,1221.14933 697.029333,1220.62133 L692.133333,1219.22933 C690.645333,1218.84533 686.277333,1217.64533 686.277333,1212.70133 C686.277333,1210.30133 687.573333,1208.28533 689.157333,1207.22933 C691.269333,1205.74133 694.149333,1205.16533 697.701333,1205.16533 C702.885333,1205.16533 708.309333,1206.55733 708.693333,1213.27733 L700.149333,1213.27733 C700.149333,1212.55733 700.149333,1211.64533 699.813333,1210.92533 C699.429333,1210.15733 698.757333,1209.62933 697.317333,1209.62933 C695.925333,1209.62933 694.629333,1210.25333 694.629333,1211.74133 C694.629333,1213.13333 695.637333,1213.66133 697.077333,1214.04533 L703.509333,1215.82133 C705.813333,1216.44533 709.173333,1217.74133 709.173333,1222.44533 C709.173333,1230.60533 699.717333,1230.60533 697.605333,1230.60533 C692.709333,1230.60533 685.653333,1229.88533 685.749333,1222.10933 Z M738.453333,1219.70933 L721.173333,1219.70933 C721.173333,1221.00533 721.173333,1225.56533 725.781333,1225.56533 C728.181333,1225.56533 729.669333,1224.31733 729.909333,1222.06133 L738.309333,1222.06133 C737.637333,1228.10933 731.973333,1230.46133 725.733333,1230.46133 C717.333333,1230.46133 712.821333,1226.23733 712.821333,1218.26933 C712.821333,1210.20533 716.757333,1204.97333 725.637333,1204.97333 C732.357333,1204.97333 735.477333,1207.70933 737.109333,1211.11733 C738.165333,1213.18133 738.453333,1215.48533 738.453333,1219.70933 Z M721.269333,1214.81333 L729.957333,1214.81333 C729.861333,1213.42133 729.573333,1209.77333 725.637333,1209.77333 C721.701333,1209.77333 721.365333,1213.66133 721.269333,1214.81333 Z M734.997333,1195.08533 L726.213333,1202.04533 L719.877333,1202.04533 L725.205333,1195.08533 L734.997333,1195.08533 Z M765.957333,1229.93333 L756.789333,1205.83733 L766.485333,1205.83733 L771.285333,1222.73333 L776.421333,1205.83733 L784.917333,1205.83733 L775.797333,1229.93333 L765.957333,1229.93333 Z M788.901333,1201.80533 L788.901333,1195.37333 L798.117333,1195.37333 L798.117333,1201.80533 L788.901333,1201.80533 Z M788.997333,1229.93333 L788.997333,1205.83733 L798.021333,1205.83733 L798.021333,1229.93333 L788.997333,1229.93333 Z M821.589333,1195.27733 L830.613333,1195.27733 L830.613333,1223.93333 C830.613333,1225.94933 830.709333,1227.91733 830.853333,1229.93333 L822.309333,1229.93333 L822.117333,1226.38133 C821.157333,1227.77333 819.285333,1230.50933 813.957333,1230.50933 C805.653333,1230.50933 803.301333,1223.78933 803.301333,1217.88533 C803.301333,1212.74933 804.693333,1210.34933 806.325333,1208.57333 C808.533333,1206.22133 811.221333,1205.30933 814.245333,1205.30933 C818.277333,1205.30933 820.005333,1206.98933 821.589333,1208.66933 L821.589333,1195.27733 Z M817.125333,1225.18133 C820.389333,1225.18133 821.685333,1221.91733 821.685333,1217.78933 C821.685333,1213.75733 820.389333,1210.58933 817.221333,1210.58933 C813.189333,1210.58933 812.661333,1215.67733 812.661333,1217.93333 C812.661333,1220.23733 813.141333,1225.18133 817.125333,1225.18133 Z M861.093333,1219.70933 L843.813333,1219.70933 C843.813333,1221.00533 843.813333,1225.56533 848.421333,1225.56533 C850.821333,1225.56533 852.309333,1224.31733 852.549333,1222.06133 L860.949333,1222.06133 C860.277333,1228.10933 854.613333,1230.46133 848.373333,1230.46133 C839.973333,1230.46133 835.461333,1226.23733 835.461333,1218.26933 C835.461333,1210.20533 839.397333,1204.97333 848.277333,1204.97333 C854.997333,1204.97333 858.117333,1207.70933 859.749333,1211.11733 C860.805333,1213.18133 861.093333,1215.48533 861.093333,1219.70933 Z M843.909333,1214.81333 L852.597333,1214.81333 C852.501333,1213.42133 852.213333,1209.77333 848.277333,1209.77333 C844.341333,1209.77333 844.005333,1213.66133 843.909333,1214.81333 Z M871.029333,1235.78933 L864.789333,1235.78933 C868.245333,1224.12533 869.013333,1220.42933 869.013333,1214.81333 C869.013333,1209.43733 868.341333,1204.44533 864.741333,1193.78933 L871.077333,1193.78933 C873.333333,1198.68533 876.741333,1206.26933 876.741333,1214.57333 C876.741333,1222.20533 873.477333,1229.98133 871.029333,1235.78933 Z" id="Image-de-fond-(blanc-Copy-5" fill="#D8D8D9"></path>
        <path d="M609.92,1651.8 L609.92,1617.144 L619.808,1617.144 L619.808,1651.8 L609.92,1651.8 Z M625.952,1651.8 L625.952,1633.176 C625.952,1632.6 625.76,1628.424 625.76,1627.704 L634.688,1627.704 L634.784,1631.688 C636.512,1628.568 639.296,1627.128 642.944,1627.128 C644.336,1627.128 648.944,1627.368 650.528,1631.592 C652.784,1627.848 656.528,1627.08 659.024,1627.08 C663.536,1627.08 665.696,1629.432 666.608,1630.824 C667.904,1632.888 667.904,1635.816 667.904,1638.6 L667.904,1651.8 L658.88,1651.8 L658.88,1638.168 C658.88,1635.72 658.88,1632.84 655.28,1632.84 C654.08,1632.84 652.736,1633.272 651.92,1634.856 C651.632,1635.432 651.44,1636.2 651.44,1638.264 L651.44,1651.8 L642.416,1651.8 L642.416,1638.072 C642.416,1635.912 642.416,1632.84 638.816,1632.84 C635.744,1632.84 634.976,1635.384 634.976,1638.072 L634.976,1651.8 L625.952,1651.8 Z M697.904,1651.8 L689.264,1651.8 C689.072,1650.936 688.976,1649.88 688.976,1648.344 C687.872,1649.976 686,1652.28 681.056,1652.28 C675.152,1652.28 672.56,1649.064 672.56,1644.792 C672.56,1638.216 678.656,1635.816 689.024,1636.248 C689.072,1633.656 688.736,1631.256 686,1631.256 C684.32,1631.256 682.736,1632.168 682.784,1634.904 L674.144,1634.904 C674.192,1633.8 674.192,1631.736 676.016,1629.864 C677.888,1627.944 681.632,1626.84 686,1626.84 C688.16,1626.84 692.768,1627.128 695.312,1629.624 C696.848,1631.112 697.424,1633.368 697.424,1635.96 L697.424,1647.192 C697.424,1648.92 697.472,1649.4 697.904,1651.8 Z M688.976,1640.424 C685.136,1640.472 681.44,1640.52 681.44,1643.976 C681.44,1645.752 682.592,1647.24 684.752,1647.24 C685.712,1647.24 687.392,1646.856 688.304,1644.936 C689.024,1643.4 689.024,1641.432 688.976,1640.424 Z M720.896,1627.56 L729.392,1627.56 L729.392,1650.024 C729.392,1652.904 728.816,1656.312 725.552,1658.616 C723.488,1660.104 720.56,1661.304 715.616,1661.304 C712.88,1661.304 708.32,1660.92 705.584,1658.472 C703.472,1656.6 703.424,1654.344 703.376,1653.096 L711.872,1653.096 C711.92,1654.92 713.216,1656.168 715.808,1656.168 C720.32,1656.168 720.608,1652.904 720.608,1650.312 L720.608,1647.144 C718.16,1650.792 714.224,1651.032 712.832,1651.032 C707.744,1651.032 702.128,1647.864 702.128,1639.08 C702.128,1632.552 705.584,1627.128 712.928,1627.128 C717.584,1627.128 719.696,1629.288 720.896,1631.208 L720.896,1627.56 Z M720.464,1638.888 C720.464,1637.64 720.464,1632.168 716.096,1632.168 C713.072,1632.168 711.44,1634.952 711.44,1638.984 C711.44,1641.528 712.016,1645.704 716,1645.704 C720.32,1645.704 720.464,1640.616 720.464,1638.888 Z M759.776,1641.576 L742.496,1641.576 C742.496,1642.872 742.496,1647.432 747.104,1647.432 C749.504,1647.432 750.992,1646.184 751.232,1643.928 L759.632,1643.928 C758.96,1649.976 753.296,1652.328 747.056,1652.328 C738.656,1652.328 734.144,1648.104 734.144,1640.136 C734.144,1632.072 738.08,1626.84 746.96,1626.84 C753.68,1626.84 756.8,1629.576 758.432,1632.984 C759.488,1635.048 759.776,1637.352 759.776,1641.576 Z M742.592,1636.68 L751.28,1636.68 C751.184,1635.288 750.896,1631.64 746.96,1631.64 C743.024,1631.64 742.688,1635.528 742.592,1636.68 Z M797.6,1617.144 L806.624,1617.144 L806.624,1645.8 C806.624,1647.816 806.72,1649.784 806.864,1651.8 L798.32,1651.8 L798.128,1648.248 C797.168,1649.64 795.296,1652.376 789.968,1652.376 C781.664,1652.376 779.312,1645.656 779.312,1639.752 C779.312,1634.616 780.704,1632.216 782.336,1630.44 C784.544,1628.088 787.232,1627.176 790.256,1627.176 C794.288,1627.176 796.016,1628.856 797.6,1630.536 L797.6,1617.144 Z M793.136,1647.048 C796.4,1647.048 797.696,1643.784 797.696,1639.656 C797.696,1635.624 796.4,1632.456 793.232,1632.456 C789.2,1632.456 788.672,1637.544 788.672,1639.8 C788.672,1642.104 789.152,1647.048 793.136,1647.048 Z M837.104,1641.576 L819.824,1641.576 C819.824,1642.872 819.824,1647.432 824.432,1647.432 C826.832,1647.432 828.32,1646.184 828.56,1643.928 L836.96,1643.928 C836.288,1649.976 830.624,1652.328 824.384,1652.328 C815.984,1652.328 811.472,1648.104 811.472,1640.136 C811.472,1632.072 815.408,1626.84 824.288,1626.84 C831.008,1626.84 834.128,1629.576 835.76,1632.984 C836.816,1635.048 837.104,1637.352 837.104,1641.576 Z M819.92,1636.68 L828.608,1636.68 C828.512,1635.288 828.224,1631.64 824.288,1631.64 C820.352,1631.64 820.016,1635.528 819.92,1636.68 Z M875.504,1617.288 L875.504,1623.096 C875.12,1623 874.208,1622.808 873.008,1622.808 C869.312,1622.808 869.408,1625.784 869.456,1627.8 L875.264,1627.8 L875.264,1633.656 L869.456,1633.656 L869.456,1651.8 L860.624,1651.8 L860.624,1633.656 L855.968,1633.656 L855.968,1627.8 L860.768,1627.8 C860.624,1622.04 860.72,1617 870.176,1617 C872.624,1617 874.496,1617.192 875.504,1617.288 Z M878.144,1639.656 C878.144,1632.264 882.704,1626.888 892.256,1626.888 C900.08,1626.888 906.176,1630.824 906.176,1639.368 C906.176,1642.872 905.168,1646.424 902.672,1648.92 C900.656,1650.888 897.68,1652.376 892.736,1652.376 C887.408,1652.376 883.952,1651.08 881.6,1648.824 C878.816,1646.184 878.144,1642.584 878.144,1639.656 Z M887.504,1639.704 C887.504,1641.288 887.648,1643.64 888.656,1645.416 C889.712,1647.24 891.344,1647.336 892.16,1647.336 C896.096,1647.336 896.864,1643.064 896.864,1639.704 C896.864,1635.528 895.856,1632.024 892.256,1632.024 C888.272,1632.024 887.504,1636.104 887.504,1639.704 Z M911.408,1651.8 L911.408,1632.84 L911.168,1627.704 L920.192,1627.704 L920.288,1631.4 C921.392,1629.576 923.312,1627.176 928.304,1627.176 C937.136,1627.176 937.136,1633.896 937.136,1637.208 L937.136,1651.8 L928.112,1651.8 L928.112,1637.976 C928.112,1636.296 928.112,1632.888 924.416,1632.888 C920.384,1632.888 920.384,1637.112 920.384,1637.976 L920.384,1651.8 L911.408,1651.8 Z M960.272,1617.144 L969.296,1617.144 L969.296,1645.8 C969.296,1647.816 969.392,1649.784 969.536,1651.8 L960.992,1651.8 L960.8,1648.248 C959.84,1649.64 957.968,1652.376 952.64,1652.376 C944.336,1652.376 941.984,1645.656 941.984,1639.752 C941.984,1634.616 943.376,1632.216 945.008,1630.44 C947.216,1628.088 949.904,1627.176 952.928,1627.176 C956.96,1627.176 958.688,1628.856 960.272,1630.536 L960.272,1617.144 Z M955.808,1647.048 C959.072,1647.048 960.368,1643.784 960.368,1639.656 C960.368,1635.624 959.072,1632.456 955.904,1632.456 C951.872,1632.456 951.344,1637.544 951.344,1639.8 C951.344,1642.104 951.824,1647.048 955.808,1647.048 Z M541.712,1663.656 L547.952,1663.656 C544.496,1675.32 543.728,1678.968 543.728,1684.584 C543.728,1689.96 544.4,1694.952 548,1705.656 L541.664,1705.656 C539.408,1700.712 536,1693.128 536,1684.824 C536,1677.192 539.264,1669.416 541.712,1663.656 Z M552.656,1665.144 L561.728,1665.144 L561.728,1678.248 C564.224,1675.128 568.496,1675.08 569.36,1675.08 C573.968,1675.08 576.752,1677.528 578.288,1680.12 C579.584,1682.376 579.824,1685.016 579.824,1687.608 C579.824,1692.312 578.72,1694.952 576.704,1697.112 C574.016,1700.04 570.944,1700.328 569.12,1700.328 C567.536,1700.328 564.08,1700.184 561.104,1696.248 L560.816,1699.8 L552.368,1699.8 C552.608,1697.064 552.656,1693.944 552.656,1693.8 L552.656,1665.144 Z M561.44,1687.608 C561.44,1689.192 561.728,1694.904 566,1694.904 C570.512,1694.904 570.512,1689.144 570.512,1687.56 C570.512,1685.112 570.224,1680.312 566.192,1680.312 C561.728,1680.312 561.44,1685.832 561.44,1687.608 Z M585.056,1699.8 L585.056,1665.144 L594.08,1665.144 L594.08,1699.8 L585.056,1699.8 Z M624.608,1699.8 L615.968,1699.8 C615.776,1698.936 615.68,1697.88 615.68,1696.344 C614.576,1697.976 612.704,1700.28 607.76,1700.28 C601.856,1700.28 599.264,1697.064 599.264,1692.792 C599.264,1686.216 605.36,1683.816 615.728,1684.248 C615.776,1681.656 615.44,1679.256 612.704,1679.256 C611.024,1679.256 609.44,1680.168 609.488,1682.904 L600.848,1682.904 C600.896,1681.8 600.896,1679.736 602.72,1677.864 C604.592,1675.944 608.336,1674.84 612.704,1674.84 C614.864,1674.84 619.472,1675.128 622.016,1677.624 C623.552,1679.112 624.128,1681.368 624.128,1683.96 L624.128,1695.192 C624.128,1696.92 624.176,1697.4 624.608,1699.8 Z M615.68,1688.424 C611.84,1688.472 608.144,1688.52 608.144,1691.976 C608.144,1693.752 609.296,1695.24 611.456,1695.24 C612.416,1695.24 614.096,1694.856 615.008,1692.936 C615.728,1691.4 615.728,1689.432 615.68,1688.424 Z M630.128,1699.8 L630.128,1680.84 L629.888,1675.704 L638.912,1675.704 L639.008,1679.4 C640.112,1677.576 642.032,1675.176 647.024,1675.176 C655.856,1675.176 655.856,1681.896 655.856,1685.208 L655.856,1699.8 L646.832,1699.8 L646.832,1685.976 C646.832,1684.296 646.832,1680.888 643.136,1680.888 C639.104,1680.888 639.104,1685.112 639.104,1685.976 L639.104,1699.8 L630.128,1699.8 Z M686.624,1684.152 L677.696,1684.152 C677.696,1681.896 676.832,1680.024 674.48,1680.024 C671.168,1680.024 670.4,1683.384 670.4,1687.608 C670.4,1693.848 672.128,1695.288 674.384,1695.288 C677.456,1695.288 677.648,1692.216 677.648,1690.392 L686.768,1690.392 C686.816,1696.488 681.92,1700.376 674.624,1700.376 C666.944,1700.376 661.088,1696.296 661.088,1687.608 C661.088,1678.104 667.76,1674.888 674.528,1674.888 C677.12,1674.888 681.488,1675.32 684.272,1678.344 C686.336,1680.552 686.528,1682.76 686.624,1684.152 Z M705.776,1691.976 L714.704,1691.976 C714.704,1692.408 714.704,1693.32 715.088,1694.136 C715.424,1694.904 716.192,1695.624 717.728,1695.624 C719.792,1695.624 720.464,1694.232 720.464,1693.176 C720.464,1691.496 719.072,1691.016 717.056,1690.488 L712.16,1689.096 C710.672,1688.712 706.304,1687.512 706.304,1682.568 C706.304,1680.168 707.6,1678.152 709.184,1677.096 C711.296,1675.608 714.176,1675.032 717.728,1675.032 C722.912,1675.032 728.336,1676.424 728.72,1683.144 L720.176,1683.144 C720.176,1682.424 720.176,1681.512 719.84,1680.792 C719.456,1680.024 718.784,1679.496 717.344,1679.496 C715.952,1679.496 714.656,1680.12 714.656,1681.608 C714.656,1683 715.664,1683.528 717.104,1683.912 L723.536,1685.688 C725.84,1686.312 729.2,1687.608 729.2,1692.312 C729.2,1700.472 719.744,1700.472 717.632,1700.472 C712.736,1700.472 705.68,1699.752 705.776,1691.976 Z M734.288,1671.672 L734.288,1665.24 L743.504,1665.24 L743.504,1671.672 L734.288,1671.672 Z M734.384,1699.8 L734.384,1675.704 L743.408,1675.704 L743.408,1699.8 L734.384,1699.8 Z M766.352,1699.8 L766.352,1665.144 L775.376,1665.144 L775.376,1699.8 L766.352,1699.8 Z M805.904,1699.8 L797.264,1699.8 C797.072,1698.936 796.976,1697.88 796.976,1696.344 C795.872,1697.976 794,1700.28 789.056,1700.28 C783.152,1700.28 780.56,1697.064 780.56,1692.792 C780.56,1686.216 786.656,1683.816 797.024,1684.248 C797.072,1681.656 796.736,1679.256 794,1679.256 C792.32,1679.256 790.736,1680.168 790.784,1682.904 L782.144,1682.904 C782.192,1681.8 782.192,1679.736 784.016,1677.864 C785.888,1675.944 789.632,1674.84 794,1674.84 C796.16,1674.84 800.768,1675.128 803.312,1677.624 C804.848,1679.112 805.424,1681.368 805.424,1683.96 L805.424,1695.192 C805.424,1696.92 805.472,1697.4 805.904,1699.8 Z M796.976,1688.424 C793.136,1688.472 789.44,1688.52 789.44,1691.976 C789.44,1693.752 790.592,1695.24 792.752,1695.24 C793.712,1695.24 795.392,1694.856 796.304,1692.936 C797.024,1691.4 797.024,1689.432 796.976,1688.424 Z M811.568,1671.672 L811.568,1665.24 L820.784,1665.24 L820.784,1671.672 L811.568,1671.672 Z M811.664,1699.8 L811.664,1675.704 L820.688,1675.704 L820.688,1699.8 L811.664,1699.8 Z M825.728,1691.976 L834.656,1691.976 C834.656,1692.408 834.656,1693.32 835.04,1694.136 C835.376,1694.904 836.144,1695.624 837.68,1695.624 C839.744,1695.624 840.416,1694.232 840.416,1693.176 C840.416,1691.496 839.024,1691.016 837.008,1690.488 L832.112,1689.096 C830.624,1688.712 826.256,1687.512 826.256,1682.568 C826.256,1680.168 827.552,1678.152 829.136,1677.096 C831.248,1675.608 834.128,1675.032 837.68,1675.032 C842.864,1675.032 848.288,1676.424 848.672,1683.144 L840.128,1683.144 C840.128,1682.424 840.128,1681.512 839.792,1680.792 C839.408,1680.024 838.736,1679.496 837.296,1679.496 C835.904,1679.496 834.608,1680.12 834.608,1681.608 C834.608,1683 835.616,1683.528 837.056,1683.912 L843.488,1685.688 C845.792,1686.312 849.152,1687.608 849.152,1692.312 C849.152,1700.472 839.696,1700.472 837.584,1700.472 C832.688,1700.472 825.632,1699.752 825.728,1691.976 Z M852.416,1691.976 L861.344,1691.976 C861.344,1692.408 861.344,1693.32 861.728,1694.136 C862.064,1694.904 862.832,1695.624 864.368,1695.624 C866.432,1695.624 867.104,1694.232 867.104,1693.176 C867.104,1691.496 865.712,1691.016 863.696,1690.488 L858.8,1689.096 C857.312,1688.712 852.944,1687.512 852.944,1682.568 C852.944,1680.168 854.24,1678.152 855.824,1677.096 C857.936,1675.608 860.816,1675.032 864.368,1675.032 C869.552,1675.032 874.976,1676.424 875.36,1683.144 L866.816,1683.144 C866.816,1682.424 866.816,1681.512 866.48,1680.792 C866.096,1680.024 865.424,1679.496 863.984,1679.496 C862.592,1679.496 861.296,1680.12 861.296,1681.608 C861.296,1683 862.304,1683.528 863.744,1683.912 L870.176,1685.688 C872.48,1686.312 875.84,1687.608 875.84,1692.312 C875.84,1700.472 866.384,1700.472 864.272,1700.472 C859.376,1700.472 852.32,1699.752 852.416,1691.976 Z M905.12,1689.576 L887.84,1689.576 C887.84,1690.872 887.84,1695.432 892.448,1695.432 C894.848,1695.432 896.336,1694.184 896.576,1691.928 L904.976,1691.928 C904.304,1697.976 898.64,1700.328 892.4,1700.328 C884,1700.328 879.488,1696.104 879.488,1688.136 C879.488,1680.072 883.424,1674.84 892.304,1674.84 C899.024,1674.84 902.144,1677.576 903.776,1680.984 C904.832,1683.048 905.12,1685.352 905.12,1689.576 Z M887.936,1684.68 L896.624,1684.68 C896.528,1683.288 896.24,1679.64 892.304,1679.64 C888.368,1679.64 888.032,1683.528 887.936,1684.68 Z M901.664,1664.952 L892.88,1671.912 L886.544,1671.912 L891.872,1664.952 L901.664,1664.952 Z M932.624,1699.8 L923.456,1675.704 L933.152,1675.704 L937.952,1692.6 L943.088,1675.704 L951.584,1675.704 L942.464,1699.8 L932.624,1699.8 Z M955.568,1671.672 L955.568,1665.24 L964.784,1665.24 L964.784,1671.672 L955.568,1671.672 Z M955.664,1699.8 L955.664,1675.704 L964.688,1675.704 L964.688,1699.8 L955.664,1699.8 Z M988.256,1665.144 L997.28,1665.144 L997.28,1693.8 C997.28,1695.816 997.376,1697.784 997.52,1699.8 L988.976,1699.8 L988.784,1696.248 C987.824,1697.64 985.952,1700.376 980.624,1700.376 C972.32,1700.376 969.968,1693.656 969.968,1687.752 C969.968,1682.616 971.36,1680.216 972.992,1678.44 C975.2,1676.088 977.888,1675.176 980.912,1675.176 C984.944,1675.176 986.672,1676.856 988.256,1678.536 L988.256,1665.144 Z M983.792,1695.048 C987.056,1695.048 988.352,1691.784 988.352,1687.656 C988.352,1683.624 987.056,1680.456 983.888,1680.456 C979.856,1680.456 979.328,1685.544 979.328,1687.8 C979.328,1690.104 979.808,1695.048 983.792,1695.048 Z M1027.76,1689.576 L1010.48,1689.576 C1010.48,1690.872 1010.48,1695.432 1015.088,1695.432 C1017.488,1695.432 1018.976,1694.184 1019.216,1691.928 L1027.616,1691.928 C1026.944,1697.976 1021.28,1700.328 1015.04,1700.328 C1006.64,1700.328 1002.128,1696.104 1002.128,1688.136 C1002.128,1680.072 1006.064,1674.84 1014.944,1674.84 C1021.664,1674.84 1024.784,1677.576 1026.416,1680.984 C1027.472,1683.048 1027.76,1685.352 1027.76,1689.576 Z M1010.576,1684.68 L1019.264,1684.68 C1019.168,1683.288 1018.88,1679.64 1014.944,1679.64 C1011.008,1679.64 1010.672,1683.528 1010.576,1684.68 Z M1037.696,1705.656 L1031.456,1705.656 C1034.912,1693.992 1035.68,1690.296 1035.68,1684.68 C1035.68,1679.304 1035.008,1674.312 1031.408,1663.656 L1037.744,1663.656 C1040,1668.552 1043.408,1676.136 1043.408,1684.44 C1043.408,1692.072 1040.144,1699.848 1037.696,1705.656 Z" id="Image-de-fond-(blanc-Copy-4" fill="#D8D8D9"></path>
        <g id="bg-image-placeholder" stroke="#838386" stroke-width="2">
            <path d="M0,0 L1080,1920" id="Line-6"></path>
            <path d="M1080,0 L0,1920" id="Line-7"></path>
        </g>
    </g>
</svg>